<svg width="433" height="74" viewBox="0 0 433 74" fill="none" xmlns="http://www.w3.org/2000/svg">
<g opacity="0.9">
<path fill-rule="evenodd" clip-rule="evenodd" d="M45.3982 6.79912C44.9061 5.76415 44.697 4.60132 45.0882 3.46596C46.2155 0.194692 50.6599 2.17167 51.1118 4.09625C51.5637 6.02084 50.3127 10.2604 49.0654 10.2485C48.568 10.2438 47.6555 9.68437 46.8096 8.80599L46.2424 13.4555L42.5035 12.4536L45.3982 6.79912Z" fill="#B28B67"/>
<path fill-rule="evenodd" clip-rule="evenodd" d="M50.5666 2.76073C50.4947 2.68667 50.3444 2.53084 50.2641 2.46744C50.2451 2.45228 50.1235 2.30468 50.1191 2.30494C49.9949 2.31286 49.6272 2.36635 49.566 2.48132C49.5591 2.48944 49.5525 2.497 49.5463 2.50349C49.4768 2.57591 49.4106 2.65147 49.3461 2.72862C49.2045 2.89799 49.0729 3.07938 48.9451 3.26011C48.6964 3.61209 48.4641 3.97824 48.2416 4.348C48.0151 4.72441 47.8051 5.11032 47.5841 5.48998C47.2659 6.03629 46.9069 6.55613 46.5899 7.10249C46.3875 7.45135 46.2291 7.81671 46.152 8.21094C46.1511 8.21566 46.15 8.2203 46.1491 8.22514C46.1488 8.22711 46.1485 8.22909 46.1482 8.23107C46.1367 8.29179 46.1272 8.35318 46.1198 8.41531C46.1137 8.46849 46.1075 8.52187 46.1018 8.57536C46.3248 8.32448 46.5213 8.03486 46.7203 7.7633C46.7398 7.73671 46.7588 7.70976 46.7775 7.68265C46.832 7.63135 46.887 7.5807 46.9425 7.53039C47.2921 7.21314 47.6423 6.89757 47.9836 6.57067C48.5976 5.98272 49.2115 5.37887 49.8891 4.86947C50.0892 4.71904 50.2919 4.57246 50.4905 4.41997C50.6036 4.3332 50.7149 4.24401 50.8241 4.15214C50.9022 4.08644 51.2231 3.87048 51.1796 3.67742C51.1573 3.57864 50.7533 2.95287 50.5666 2.76073Z" fill="#2C2C2C"/>
<path fill-rule="evenodd" clip-rule="evenodd" d="M50.2869 2.48895C50.3627 2.53925 50.3686 2.35509 50.3042 2.27249C50.0062 1.88981 48.6049 1.40444 47.2924 1.32939C46.4132 1.27911 45.3292 1.4499 44.5156 1.82489C43.7823 2.16295 43.1556 2.85197 42.7362 3.56755C42.2959 4.31894 42.0356 5.15552 41.9369 6.02057C41.9153 6.21058 41.9272 6.40041 41.912 6.58799C41.8948 6.79923 41.8617 6.99818 41.8748 7.21168C41.8829 7.3424 41.9196 7.47827 41.9216 7.60809C41.9238 7.75623 41.8658 7.87718 41.7998 8.00955C41.6921 8.22529 41.5735 8.43758 41.4332 8.63357C41.2224 8.92789 40.991 9.19441 40.8064 9.50894C40.5608 9.92747 39.6459 11.2584 39.9192 11.7612L47.1662 13.7031C47.1171 13.1564 46.7263 12.4238 46.7582 11.8612C46.777 11.5298 46.9296 10.836 46.9295 10.8092C47.0678 9.63968 46.893 9.01662 46.7455 8.768C46.5981 8.51939 46.3482 8.38811 46.3798 8.2152C46.5107 7.50007 46.9687 6.90398 47.3479 6.30542C47.7997 5.59202 48.1918 4.8419 48.6505 4.13316C48.8536 3.81932 49.8934 2.22776 50.2869 2.48895Z" fill="#8991DC"/>
<path fill-rule="evenodd" clip-rule="evenodd" d="M47.5303 2.61314C47.0247 3.40703 46.8419 3.85414 46.5832 5.05467L46.4491 5.01875C46.4983 3.83357 47.0032 2.84074 47.3618 2.56799L47.5303 2.61314ZM43.2643 3.86855C43.4425 5.24074 43.4792 6.03267 44.6334 7.4137L44.5029 7.46117C43.3056 6.28277 43.1502 5.21821 43.1434 3.89133L43.2643 3.86855ZM45.6937 3.1717C45.4551 4.98766 45.2542 6.00764 45.945 8.24914L45.8063 8.25398C45.0138 6.25115 45.1826 4.83501 45.5715 3.14926L45.6937 3.1717ZM42.9666 8.02524L43.112 7.92129C44.4831 8.79114 44.0571 9.71434 45.6796 11.1996L45.4964 11.2529C44.0283 10.1294 44.0339 8.56486 42.9666 8.02524Z" fill="black" fill-opacity="0.2"/>
<path fill-rule="evenodd" clip-rule="evenodd" d="M37.7809 26.7093C38.0717 30.6784 56.8064 42.3641 56.9157 42.692C56.9643 42.8377 55.0205 47.4441 51.0843 56.5111L52.722 57.1475C58.7594 47.5449 61.6231 42.232 61.313 41.2088C60.869 39.7438 56.0237 34.9247 46.777 26.7515L37.7809 26.7093Z" fill="#B28B67"/>
<path fill-rule="evenodd" clip-rule="evenodd" d="M51.515 54.4633L54.1888 55.4366C59.8268 49.0751 62.0368 43.8263 61.6339 41.152C61.3652 39.3691 56.5366 34.5581 47.148 26.7188L37.5888 26.7188C37.915 35.9108 55.2797 42.7268 55.512 43.1185C55.7442 43.5102 53.4585 47.3466 51.515 54.4633Z" fill="#2F3676"/>
<path fill-rule="evenodd" clip-rule="evenodd" d="M50.482 56.1986C50.1477 56.5895 49.9397 56.8973 49.8579 57.122C49.7584 57.3953 49.6588 57.8107 49.559 58.3681C49.876 58.4835 52.7254 59.5206 58.1071 61.4794C58.5965 60.8259 58.6126 60.3828 58.1553 60.15C57.6981 59.9173 57.3197 59.7197 57.0203 59.5573L53.6919 56.34C53.6279 56.2781 53.5258 56.2798 53.4639 56.3438C53.4628 56.3449 53.4618 56.346 53.4607 56.3472L52.9799 56.8737C52.4616 56.9192 52.0639 56.8915 51.7869 56.7907C51.5619 56.7088 51.2841 56.5048 50.9538 56.1786L50.9538 56.1786C50.827 56.0535 50.6227 56.0548 50.4976 56.1816C50.4922 56.1871 50.487 56.1927 50.482 56.1986Z" fill="#CFCFCF"/>
<path fill-rule="evenodd" clip-rule="evenodd" d="M39.9352 26.709L31.5894 46.7448L23.3867 63.6835H25.322L46.4952 26.709H39.9352Z" fill="#997659"/>
<path fill-rule="evenodd" clip-rule="evenodd" d="M23.2707 62.9018C23.0902 63.3835 23 63.7439 23 63.983C23 64.2739 23.0485 64.6983 23.1454 65.2563C23.4828 65.2563 26.515 65.2563 32.2421 65.2563C32.4785 64.4748 32.342 64.0529 31.8327 63.9906C31.3234 63.9282 30.9003 63.872 30.5634 63.8218L26.3354 61.9369C26.254 61.9006 26.1586 61.9371 26.1224 62.0185C26.1218 62.0199 26.1212 62.0213 26.1206 62.0227L25.8488 62.682C25.3773 62.902 24.9942 63.0119 24.6994 63.0119C24.4599 63.0119 24.1292 62.9152 23.7071 62.7218L23.7071 62.7218C23.5452 62.6475 23.3537 62.7186 23.2795 62.8806C23.2763 62.8876 23.2734 62.8946 23.2707 62.9018Z" fill="#CFCFCF"/>
<path fill-rule="evenodd" clip-rule="evenodd" d="M24.127 60.1647L28.4271 60.9711C31.752 56.0829 45.6668 36.0396 47.1925 26.709H37.6193C32.5244 33.4541 27.2963 55.1956 24.127 60.1647Z" fill="#5C63AB"/>
<path fill-rule="evenodd" clip-rule="evenodd" d="M53.7697 26.0115L57.4951 31.1942C58.7058 31.9835 59.6698 32.7892 60.387 33.6115C60.535 33.8715 60.6631 34.3422 59.8127 33.9917C58.9622 33.6412 58.0519 33.3108 57.8349 33.5692C57.6179 33.8276 58.0301 34.3549 57.6564 34.6773C57.4072 34.8922 56.859 33.9722 56.0117 31.9173L51.8193 28.3338L53.7697 26.0115ZM33.6893 23.109L37.0062 23.7073C33.7901 29.962 32.0647 33.2773 31.83 33.6533C31.3019 34.4994 31.835 36.0237 32.0362 36.8278C30.8675 37.1215 31.2994 35.3468 29.8208 35.7415C28.4712 36.1019 27.337 36.986 26.0528 35.8428C25.8949 35.7022 25.7733 35.2564 26.2991 35.0174C27.6091 34.4222 29.5405 33.3166 29.8494 32.8951C30.2707 32.3203 31.5507 29.0583 33.6893 23.109Z" fill="#B28B67"/>
<path fill-rule="evenodd" clip-rule="evenodd" d="M45.5778 10.8442L46.9928 10.8508C48.3158 17.1748 51.4979 23.2701 56.5388 29.1366L51.1326 33.7608C46.4531 25.8482 44.072 18.1159 45.5778 10.8442Z" fill="#191847"/>
<path fill-rule="evenodd" clip-rule="evenodd" d="M36.5475 27.049L48.7777 29.2055C47.159 21.8165 46.7742 15.7142 47.6233 10.8987L44.031 9.69847C40.3094 13.8503 38.4782 19.4472 36.5475 27.049Z" fill="#DDE3E9"/>
<path fill-rule="evenodd" clip-rule="evenodd" d="M43.9521 9.68708C43.9527 9.68629 43.9533 9.68551 43.954 9.68472L44.1948 9.72719C44.4812 9.78792 44.917 9.88319 45.5021 10.013L45.9443 12.7178C45.4909 15.8405 44.9379 22.1972 44.2851 31.7879L36.268 30.3742C36.1744 31.0281 36.0933 31.6904 36.0248 32.3611L30.0637 31.31C32.7292 21.4073 37.3578 14.1986 43.9496 9.68395L43.9521 9.68708L43.9521 9.68708Z" fill="#2F3676"/>
<path fill-rule="evenodd" clip-rule="evenodd" d="M38.2648 22.1489C37.7784 26.2418 37.857 29.1362 38.5008 30.8323L36.2595 30.4371C36.6755 27.5041 37.3439 24.7413 38.2648 22.1489L38.2648 22.1489Z" fill="black" fill-opacity="0.1"/>
<path fill-rule="evenodd" clip-rule="evenodd" d="M38.9093 25.8276L43.1866 24.6868L42.8626 26.5246L38.9093 25.8276Z" fill="white" fill-opacity="0.2"/>
<path fill-rule="evenodd" clip-rule="evenodd" d="M96.295 8.15492C95.5287 7.29829 95.01 6.24847 95.0967 5.07211C95.3464 1.68271 100.301 2.42833 101.265 4.13901C102.228 5.84969 102.114 10.189 100.868 10.4947C100.372 10.6167 99.3135 10.318 98.2365 9.69979L98.9125 14.2541H94.9209L96.295 8.15492Z" fill="#B28B67"/>
<path fill-rule="evenodd" clip-rule="evenodd" d="M103.033 1.76764C102.951 1.49096 102.728 1.25407 102.429 1.18379C102.356 1.16674 102.281 1.15985 102.206 1.16272C102.18 1.16374 102.172 1.17111 102.159 1.15325C102.15 1.14001 102.15 1.10766 102.146 1.0921C102.134 1.04371 102.119 0.995931 102.101 0.949386C102.038 0.790634 101.933 0.650136 101.806 0.531781C101.568 0.310363 101.247 0.15755 100.914 0.129904C100.731 0.11478 100.55 0.143019 100.378 0.19956C100.288 0.228828 100.202 0.265274 100.117 0.305568C100.092 0.317695 100.009 0.377096 99.984 0.373248C99.9558 0.369004 99.8993 0.302375 99.8764 0.28565C99.5934 0.0789067 99.244 -0.00237788 98.8915 5.28042e-05C98.4937 0.00290589 98.1106 0.0218358 97.7788 0.252782C97.7086 0.301678 97.6417 0.355212 97.578 0.411576C97.5445 0.44125 97.512 0.472037 97.481 0.504104C97.4623 0.52345 97.4441 0.543233 97.4266 0.563547C97.3968 0.598026 97.4016 0.609353 97.36 0.585295C97.2003 0.492913 97.0153 0.449706 96.8289 0.471517C96.7182 0.484477 96.6106 0.516117 96.5083 0.557764C96.4735 0.57194 96.3929 0.628491 96.3558 0.629042C96.319 0.629583 96.2396 0.577162 96.2017 0.563838C95.9969 0.491852 95.7762 0.474107 95.5609 0.50737C95.3389 0.541694 95.1208 0.626047 94.9327 0.742612C94.8422 0.798684 94.7633 0.86081 94.6999 0.944185C94.6725 0.980184 94.6478 1.01826 94.6168 1.05164C94.5986 1.07118 94.5626 1.09124 94.5529 1.11597C94.5587 1.10116 94.3101 1.00988 94.2866 1.00404C94.1616 0.972955 94.0343 0.979258 93.9119 1.01762C93.6817 1.08975 93.4838 1.25151 93.3211 1.41735C93.2376 1.50254 93.1644 1.5967 93.1024 1.69702C93.0726 1.74507 93.0454 1.7945 93.0205 1.84497C93.0085 1.86943 93.0005 1.90002 92.9846 1.92205C92.9641 1.95043 92.9504 1.95097 92.9133 1.96335C92.7249 2.02619 92.5532 2.13256 92.4224 2.2763C92.2901 2.42171 92.2043 2.60079 92.1683 2.78937C92.1662 2.80048 92.165 2.84652 92.1581 2.85253C92.1488 2.86081 92.1109 2.85715 92.0966 2.85875C92.0469 2.86429 91.9977 2.87254 91.9491 2.8835C91.8594 2.9037 91.7722 2.93343 91.6897 2.97231C91.368 3.12386 91.138 3.40799 91.0254 3.7277C90.9073 4.06322 90.9094 4.44761 91.0506 4.77687C91.0734 4.83005 91.1005 4.88167 91.1324 4.9305C91.152 4.96048 91.1583 4.96055 91.1456 4.99201C91.1314 5.027 91.1055 5.061 91.0887 5.09518C91.0338 5.20676 90.9955 5.32509 90.9712 5.44595C90.9315 5.64421 90.9118 5.85255 90.951 6.05232C90.9692 6.14507 91.0009 6.23575 91.0494 6.31837C91.074 6.36049 91.1029 6.40044 91.1355 6.4374C91.1524 6.45659 91.1704 6.47491 91.1892 6.49247C91.2 6.5025 91.2141 6.51128 91.2232 6.52248C91.2456 6.54979 91.2502 6.52733 91.2387 6.56744C91.2226 6.62351 91.1861 6.67884 91.1638 6.7334C91.1408 6.78963 91.12 6.84663 91.1009 6.90419C91.0624 7.02074 91.0298 7.13941 91.0094 7.26011C90.9703 7.49186 90.9771 7.73879 91.0923 7.95149C91.1415 8.04246 91.2121 8.12227 91.2977 8.18435C91.3396 8.21473 91.385 8.24091 91.4327 8.26241C91.4571 8.27347 91.4884 8.27822 91.4995 8.30075C91.5116 8.32499 91.4937 8.37312 91.4897 8.40021C91.4543 8.63592 91.4365 8.8834 91.5101 9.11439C91.5779 9.32715 91.7271 9.51499 91.9208 9.63936C92.2966 9.88061 92.8032 9.86701 93.1981 9.67387C93.301 9.62352 93.3973 9.561 93.4832 9.48727C93.7019 9.76768 94.152 9.75881 94.4717 9.67891C94.87 9.57937 95.1896 9.31563 95.3738 8.96911C95.6256 9.26099 96.154 9.16629 96.3286 8.84964C96.3713 8.77214 96.3967 8.68673 96.4091 8.6003C96.4157 8.55484 96.4115 8.509 96.4165 8.46391C96.4228 8.40645 96.4631 8.35062 96.4862 8.29503C96.5313 8.18686 96.5593 8.07512 96.5606 7.95844C96.5612 7.89752 96.5531 7.83815 96.547 7.77772C96.5415 7.72333 96.5574 7.67264 96.5664 7.61895C96.4642 7.63497 96.3398 7.60874 96.2435 7.58053C96.1491 7.55285 96.0606 7.47995 95.994 7.41337C95.8392 7.25877 95.7446 7.05611 95.68 6.8544C95.538 6.41168 95.5962 5.88053 96.0638 5.63756C96.2816 5.52438 96.9342 5.52475 97.1937 5.58069C97.4665 5.63951 97.7757 6.21272 97.7909 6.2666C97.8004 6.29995 97.7956 6.34122 97.8278 6.36343C97.8985 6.41229 98.0151 6.32751 98.0672 6.28566C98.1572 6.21345 98.2214 6.11736 98.277 6.01997C98.3981 5.80779 98.4957 5.58024 98.5647 5.34795C98.6179 5.16887 98.6519 4.98419 98.7214 4.80967C98.7906 4.63602 98.8996 4.4808 99.0691 4.38243C99.2535 4.27541 99.4649 4.21905 99.6673 4.15179C99.868 4.08514 100.065 4.00368 100.221 3.86226C100.255 3.83116 100.288 3.79811 100.316 3.7615C100.337 3.7326 100.359 3.67726 100.392 3.65894C100.443 3.63043 100.519 3.70457 100.563 3.73148C100.783 3.86431 100.966 4.04955 101.114 4.25191C101.261 4.45318 101.381 4.64683 101.479 4.87157C101.552 5.03825 101.597 5.25171 101.725 5.38831C101.782 5.4493 102.206 5.4862 102.344 5.43295C102.481 5.3797 102.635 5.24143 102.681 5.15478C102.728 5.06609 102.74 4.96867 102.72 4.87157C102.708 4.81445 102.683 4.76109 102.67 4.70499C102.659 4.65786 102.649 4.61331 102.625 4.57014C102.579 4.48832 102.501 4.42951 102.407 4.40493C102.505 4.31898 102.586 4.21617 102.642 4.10123C102.701 3.98183 102.75 3.83662 102.764 3.70557C102.775 3.59912 102.758 3.48884 102.697 3.39736C102.632 3.3014 102.519 3.23879 102.42 3.17894C102.571 3.06696 102.699 2.93078 102.805 2.78C103.011 2.48679 103.138 2.1172 103.033 1.76764Z" fill="#191847"/>
<path fill-rule="evenodd" clip-rule="evenodd" d="M93.5928 27.4033L101.589 47.5535L107.195 62.4053H110.391L102.686 27.4033L93.5928 27.4033Z" fill="#1F28CF"/>
<path fill-rule="evenodd" clip-rule="evenodd" d="M91.6167 27.4033C91.5298 34.3173 91.5926 43.6258 91.3901 44.0567C91.2551 44.3441 87.0554 47.6177 78.791 53.8777L80.4384 56.5452C90.25 50.5198 95.4067 47.1057 95.9083 46.3029C96.6608 45.0987 100.441 34.0178 102.408 27.4033H91.6167Z" fill="#2B44FF"/>
<path fill-rule="evenodd" clip-rule="evenodd" d="M75.8929 55.6726L78.6753 53.656L80.9203 56.2038C81.093 58.1246 81.7608 60.2787 82.9237 62.6662L82.4141 63.0735L78.3517 58.4631L77.2167 56.6822L76.9619 56.8858L75.8929 55.6726Z" fill="#191847"/>
<path fill-rule="evenodd" clip-rule="evenodd" d="M106.898 65.2562L107.065 61.9302H110.557C112.213 63.0388 114.376 63.9363 117.044 64.6226V65.2562H110.724L108.562 64.9394V65.2562H106.898Z" fill="#191847"/>
<path fill-rule="evenodd" clip-rule="evenodd" d="M107.895 21.1152L114.462 20.2622C115.775 19.5664 116.984 19.0954 118.087 18.8491C118.398 18.8405 118.891 18.9479 118.156 19.5321C117.42 20.1162 116.673 20.7624 116.804 21.0741C116.936 21.3858 117.62 21.2699 117.733 21.7493C117.809 22.069 116.698 22.1209 114.402 21.9052L109.073 23.9168L107.895 21.1152ZM87.2671 22.5626L90.9089 22.5756C86.9155 31.1335 84.8333 35.6142 84.6623 36.0179C84.2774 36.9261 85.0918 38.3094 85.4401 39.0527C84.3058 39.536 84.4266 37.746 82.9958 38.38C81.6898 38.9586 80.6963 40.007 79.1873 39.1204C79.0018 39.0114 78.7985 38.6009 79.2897 38.2802C80.5134 37.4812 82.2769 36.0827 82.5151 35.6224C82.8401 34.9946 84.424 30.6414 87.2671 22.5626Z" fill="#997659"/>
<path fill-rule="evenodd" clip-rule="evenodd" d="M97.2429 11.5636L100.094 11.7445C100.797 17.7948 104.622 21.6164 113.186 20.3226L114.324 28.114C106.319 29.0992 99.2991 26.0474 97.8604 17.7845C97.488 15.6455 97.1939 13.4194 97.2429 11.5636Z" fill="#AFB9C5"/>
<path fill-rule="evenodd" clip-rule="evenodd" d="M95.8358 10.774L100.156 11.7163C100.156 18.7925 102.523 23.3073 103.737 28.51H92.0692C91.9048 30.3078 91.8039 32.1555 91.7513 34.0533H83.0146C84.9944 24.0222 89.173 16.2616 95.5505 10.7715H95.8335L95.8358 10.774Z" fill="#C5CFD6"/>
<path fill-rule="evenodd" clip-rule="evenodd" d="M93.9102 18.4146C93.6096 22.824 93.7864 26.1891 94.4408 28.5098H92.0693C92.3949 24.9485 92.9695 21.5834 93.9102 18.4146L93.9102 18.4146Z" fill="black" fill-opacity="0.1"/>
<path fill-rule="evenodd" clip-rule="evenodd" d="M156.073 2.99134C156.601 5.06877 157.289 9.73835 156.587 10.4708H152.143C152.143 10.4624 152.142 10.454 152.142 10.4457C150.495 10.2511 149.214 8.76065 149.214 6.95085V3.51631C149.214 1.57431 150.689 0 152.508 0H152.815C154.467 0 155.835 1.29834 156.073 2.99134Z" fill="#191847"/>
<path fill-rule="evenodd" clip-rule="evenodd" d="M150.939 6.29513C150.233 5.41054 149.755 4.32645 149.835 3.1117C150.065 -0.388333 154.63 0.381629 155.518 2.14815C156.406 3.91466 156.3 8.39558 155.152 8.7113C154.695 8.83721 153.72 8.52878 152.728 7.89042L153.35 12.5934H149.673L150.939 6.29513Z" fill="#FFD7C2"/>
<path fill-rule="evenodd" clip-rule="evenodd" d="M151.933 5.70427C152.103 7.64691 152.035 9.86536 151.53 10.392H147.086C146.839 5.80054 149.232 7.57854 149.232 3.2556C149.381 3.10002 149.522 2.94604 149.661 2.81324L149.656 2.68611C150.426 1.00474 151.402 0.164062 152.585 0.164062C154.359 0.164062 154.919 1.04532 155.396 1.79352C155.04 3.09947 153.656 3.29312 152.426 4.10716C152.281 3.98147 152.096 3.90614 151.895 3.90614C151.43 3.90614 151.052 4.30887 151.052 4.80566C151.052 5.30245 151.43 5.70518 151.895 5.70518C151.908 5.70518 151.921 5.70487 151.933 5.70427Z" fill="#191847"/>
<path fill-rule="evenodd" clip-rule="evenodd" d="M143.76 42.2098C147.436 43.3072 150.607 43.8559 153.274 43.8559C155.941 43.8559 158.418 43.0109 160.706 41.3209C157.109 40.1945 154.146 39.6313 151.819 39.6313C149.491 39.6313 146.805 40.4908 143.76 42.2098Z" fill="#1F28CF"/>
<path fill-rule="evenodd" clip-rule="evenodd" d="M156.456 45.4376C156.421 45.3807 156.391 45.3188 156.367 45.2518C155.876 43.8649 148.006 28.9029 147.222 26.1675H156.082C156.679 28.2473 159.362 41.299 159.739 43.903C160.931 48.0106 163.384 61.3134 163.697 62.235C164.026 63.2045 162.173 64.2145 161.679 63.0226C160.893 61.1261 159.02 55.8787 158.186 52.6746C157.405 49.6708 156.768 46.9684 156.456 45.4376Z" fill="#FFD7C2"/>
<path fill-rule="evenodd" clip-rule="evenodd" d="M149.207 47.2643C145.609 48.2349 132.448 49.9897 131.545 50.2649C130.616 50.548 129.801 48.504 130.949 48.0613C132.777 47.3567 137.812 45.7289 140.865 45.0646C143.32 44.5303 145.561 44.0943 147.065 43.839C146.938 39.3289 146.355 28.5052 146.737 26.1675H154.577C154.211 28.4092 151.115 44.7659 150.54 46.4032C150.358 46.9877 149.813 47.246 149.207 47.2643Z" fill="#FFD7C2"/>
<path fill-rule="evenodd" clip-rule="evenodd" d="M130.746 47.4695C130.319 47.3446 130.008 47.2966 129.815 47.3258C129.579 47.3612 129.246 47.4623 128.815 47.6289C128.886 47.9724 129.523 51.0591 130.726 56.889C131.408 57.0344 131.721 56.8441 131.664 56.318C131.608 55.792 131.564 55.3544 131.534 55.0054L132.171 50.4717C132.183 50.3844 132.134 50.2918 132.06 50.2648C132.059 50.2644 132.058 50.2639 132.056 50.2635L131.466 50.0672C131.189 49.614 131.019 49.2374 130.957 48.9374C130.907 48.6936 130.916 48.3451 130.984 47.8919L130.984 47.8919C131.01 47.718 130.912 47.5318 130.765 47.4759C130.759 47.4735 130.753 47.4714 130.746 47.4695Z" fill="#C5CFD6"/>
<path fill-rule="evenodd" clip-rule="evenodd" d="M161.117 62.8687C160.945 63.3571 160.859 63.7226 160.859 63.9651C160.859 64.26 160.905 64.6904 160.997 65.2562C161.318 65.2562 164.199 65.2562 169.64 65.2562C169.865 64.4637 169.735 64.0359 169.251 63.9727C168.767 63.9095 168.365 63.8525 168.045 63.8016L164.028 61.8902C163.951 61.8534 163.86 61.8905 163.826 61.973C163.825 61.9744 163.825 61.9758 163.824 61.9772L163.566 62.6458C163.118 62.8688 162.754 62.9804 162.474 62.9804C162.246 62.9804 161.932 62.8823 161.531 62.6861L161.531 62.6861C161.377 62.6108 161.195 62.6829 161.125 62.8471C161.122 62.8542 161.119 62.8614 161.117 62.8687Z" fill="#C5CFD6"/>
<path fill-rule="evenodd" clip-rule="evenodd" d="M146.762 26.1677C150.217 25.1127 153.486 25.1127 156.569 26.1677C157.641 31.3911 160.248 33.4642 160.706 41.4725C155.496 44.2355 149.06 39.502 143.697 42.1964C142.165 38.4276 144.31 29.3511 146.762 26.1677Z" fill="#2B44FF"/>
<path fill-rule="evenodd" clip-rule="evenodd" d="M161.626 19.6765L167.676 18.7956C168.886 18.0771 169.999 17.5907 171.016 17.3364C171.302 17.3275 171.757 17.4385 171.079 18.0417C170.401 18.6449 169.713 19.3121 169.834 19.634C169.955 19.956 170.585 19.8362 170.69 20.3313C170.759 20.6614 169.736 20.715 167.62 20.4922L162.711 22.5695L161.626 19.6765ZM142.62 21.1711L145.976 21.1846C142.296 30.0217 140.378 34.6488 140.22 35.0656C139.866 36.0035 140.616 37.4318 140.937 38.1994C139.892 38.6986 140.003 36.8501 138.685 37.5047C137.482 38.1023 136.566 39.1849 135.176 38.2693C135.005 38.1568 134.818 37.7329 135.271 37.4017C136.398 36.5766 138.023 35.1325 138.242 34.6572C138.542 34.0089 140.001 29.5136 142.62 21.1711Z" fill="#FFD7C2"/>
<path fill-rule="evenodd" clip-rule="evenodd" d="M151.811 9.81296L154.438 9.99976C155.085 16.2475 158.609 20.1939 166.5 18.8579L167.548 26.9036C160.173 27.921 153.705 24.7695 152.38 16.2369C152.036 14.0281 151.766 11.7294 151.811 9.81296Z" fill="#AFB9C5"/>
<path fill-rule="evenodd" clip-rule="evenodd" d="M150.515 8.99772L154.495 9.97073C154.495 17.278 156.676 21.9401 157.794 27.3126H147.044C146.893 29.1691 146.8 31.0771 146.751 33.0369H138.702C140.526 22.6783 144.376 14.6644 150.252 8.99512H150.513L150.515 8.99772Z" fill="#C5CFD6"/>
<path fill-rule="evenodd" clip-rule="evenodd" d="M148.741 16.8877C148.464 21.4411 148.627 24.916 149.23 27.3125H147.045C147.345 23.6349 147.874 20.1599 148.741 16.8877V16.8877Z" fill="black" fill-opacity="0.1"/>
<path fill-rule="evenodd" clip-rule="evenodd" d="M201.61 10.9242C200.975 10.1091 200.545 9.11019 200.616 7.99089C200.823 4.76585 204.931 5.47532 205.73 7.10304C206.529 8.73076 206.434 12.8596 205.401 13.1505C204.989 13.2665 204.112 12.9823 203.219 12.3941L203.78 16.7276H200.471L201.61 10.9242Z" fill="#FFCB9C"/>
<path fill-rule="evenodd" clip-rule="evenodd" d="M203.844 5.22704C203.408 5.14887 202.234 5.09512 202.017 5.09516C201.879 5.09516 201.729 5.12971 201.647 4.99083C201.58 4.87709 201.604 4.68474 201.584 4.55275C201.561 4.39943 201.528 4.24809 201.495 4.09712C201.4 3.66755 201.256 3.25886 201.055 2.87516C200.677 2.15528 200.124 1.5914 199.426 1.26328C198.655 0.90098 197.782 0.818021 196.953 0.891507C196.065 0.970129 195.262 1.29037 194.424 1.59175C193.625 1.87893 192.789 1.99197 191.954 1.85172C191.112 1.71044 190.476 1.21193 189.766 0.738775C189.04 0.254382 188.209 -0.0624293 187.35 0.010398C186.549 0.0784025 185.81 0.440284 185.147 0.923705C184.526 1.376 184.014 1.92018 183.725 2.68606C183.414 3.50992 183.415 4.41425 183.926 5.14234C184.667 6.19773 186.043 6.47065 187.187 6.44352C187.849 6.42787 188.499 6.29578 189.124 6.05551C189.958 5.73506 190.678 5.19193 191.458 4.75125C191.824 4.54446 192.202 4.37462 192.599 4.25228C192.983 4.13352 193.362 4.07905 193.711 4.33309C194.079 4.60185 194.41 4.86585 194.831 5.03409C195.236 5.1955 195.664 5.28578 196.095 5.28214C196.933 5.27506 197.76 4.98954 198.574 4.7983C199.238 4.64237 199.948 4.48697 200.625 4.63686C200.908 4.69941 201.32 4.82855 201.422 5.14942C199.705 5.48958 199.031 7.81076 199.515 9.51472C199.776 10.4344 201.347 11.5095 201.957 11.026C202.344 10.7197 202.109 10.3176 201.957 10.0521C201.666 9.54376 201.567 8.89075 202.105 8.53681C202.57 8.23155 203.058 8.95646 203.068 8.95566C203.195 8.94466 204.299 8.26261 205.059 7.26733C205.809 7.31592 205.923 6.77544 205.744 6.33342C205.564 5.8914 204.447 5.33512 203.844 5.22704Z" fill="#191847"/>
<path fill-rule="evenodd" clip-rule="evenodd" d="M199.646 29.2393L209.89 47.9601L217.571 63.7871H219.226L206.356 29.2393L199.646 29.2393Z" fill="#FFD5AF"/>
<path fill-rule="evenodd" clip-rule="evenodd" d="M216.559 63.0563C216.405 63.5064 216.328 63.8431 216.328 64.0666C216.328 64.3383 216.37 64.7349 216.452 65.2563C216.741 65.2563 219.333 65.2563 224.229 65.2563C224.431 64.526 224.314 64.1318 223.879 64.0736C223.443 64.0154 223.082 63.9628 222.794 63.9159L219.179 62.1547C219.11 62.1208 219.028 62.155 218.997 62.231C218.997 62.2323 218.996 62.2336 218.996 62.2349L218.763 62.8509C218.36 63.0564 218.033 63.1592 217.781 63.1592C217.576 63.1592 217.293 63.0688 216.933 62.8881L216.933 62.8881C216.794 62.8187 216.631 62.8852 216.567 63.0365C216.564 63.043 216.562 63.0496 216.559 63.0563Z" fill="#E4E4E4"/>
<path fill-rule="evenodd" clip-rule="evenodd" d="M215.437 61.2527L218.628 60.1978C217.23 55.6304 215.517 50.6042 213.488 45.1191C211.46 39.634 209.281 34.3407 206.952 29.2393H197.941C200.53 35.6923 203.275 41.5558 206.176 46.8296C209.076 52.1035 212.163 56.9112 215.437 61.2527Z" fill="#DB2721"/>
<path fill-rule="evenodd" clip-rule="evenodd" d="M198.972 29.2393C198.005 35.8179 196.14 44.2229 195.964 44.4823C195.847 44.6552 191.623 46.2023 183.292 49.1235L183.649 50.7181C193.584 49.1514 198.818 47.9359 199.353 47.0716C200.155 45.7751 204.16 35.5329 205.712 29.2393H198.972Z" fill="#FFCB9C"/>
<path fill-rule="evenodd" clip-rule="evenodd" d="M186.221 47.7452L186.85 50.3133C194.281 51.0256 198.833 50.5109 200.508 48.7693C202.183 47.0276 204.093 40.5176 206.236 29.2393H197.643C196.286 38.4747 195.526 43.2862 195.366 43.6739C195.206 44.0616 192.157 45.4187 186.221 47.7452Z" fill="#FF4133"/>
<path fill-rule="evenodd" clip-rule="evenodd" d="M183.7 48.4592C183.268 48.3713 182.951 48.3467 182.75 48.3855C182.505 48.4327 182.155 48.5462 181.7 48.7259C181.75 49.0363 182.2 51.8265 183.05 57.0965C183.743 57.1872 184.078 56.9932 184.055 56.5144C184.032 56.0356 184.016 55.6372 184.008 55.319L184.968 51.1227C184.986 51.0419 184.941 50.9601 184.867 50.9399C184.866 50.9396 184.865 50.9393 184.864 50.9389L184.268 50.7958C184.013 50.3977 183.864 50.063 183.82 49.7917C183.784 49.5713 183.817 49.2513 183.917 48.8316L183.917 48.8316C183.955 48.6705 183.867 48.5059 183.72 48.4638C183.713 48.462 183.707 48.4605 183.7 48.4592Z" fill="#E4E4E4"/>
<path fill-rule="evenodd" clip-rule="evenodd" d="M211.508 26.8442L215.414 31.0088C216.55 31.5386 217.482 32.1237 218.207 32.7639C218.371 32.9791 218.548 33.3915 217.78 33.207C217.012 33.0224 216.197 32.8661 216.053 33.1391C215.908 33.4121 216.334 33.8304 216.067 34.1877C215.889 34.4259 215.291 33.6683 214.273 31.9148L210.211 29.2976L211.508 26.8442ZM194.173 27.4316L197.054 27.444C195.275 33.7211 194.314 37.0518 194.173 37.4358C193.854 38.3 194.529 39.6162 194.817 40.3235C193.877 40.7834 193.977 39.0802 192.791 39.6834C191.708 40.2339 190.885 41.2315 189.634 40.3878C189.48 40.2841 189.312 39.8936 189.719 39.5884C190.733 38.8281 192.195 37.4975 192.393 37.0595C192.662 36.4622 193.255 33.2529 194.173 27.4316Z" fill="#FFCB9C"/>
<path fill-rule="evenodd" clip-rule="evenodd" d="M202.361 14.2173L203.553 13.9938C205.606 19.5983 209.189 24.6907 214.304 29.2711L210.439 34.4033C205.325 27.8816 202.173 21.1529 202.361 14.2173Z" fill="#191847"/>
<path fill-rule="evenodd" clip-rule="evenodd" d="M197.163 30.5933H207.779C205.32 24.0567 204.09 18.504 204.09 13.9351L200.888 13.4136C198.371 17.8379 197.66 23.2851 197.163 30.5933Z" fill="#DDE3E9"/>
<path fill-rule="evenodd" clip-rule="evenodd" d="M200.82 13.416C200.821 13.4152 200.821 13.4144 200.822 13.4136H201.031C201.281 13.423 201.662 13.44 202.174 13.4645L202.947 15.8816C203.029 18.8286 203.507 24.7676 204.381 33.6986H197.422C197.44 34.3154 197.47 34.938 197.512 35.5663H192.338C193.112 26.0217 195.939 18.6374 200.818 13.4136L200.82 13.416V13.416Z" fill="#2F3676"/>
<path fill-rule="evenodd" clip-rule="evenodd" d="M197.882 25.8062C198.08 29.6512 198.576 32.3019 199.37 33.7581H197.424C197.339 30.9917 197.492 28.341 197.882 25.8062V25.8062Z" fill="black" fill-opacity="0.1"/>
<path fill-rule="evenodd" clip-rule="evenodd" d="M198.971 29.0865L202.402 27.3428V29.0865H198.971Z" fill="white" fill-opacity="0.2"/>
<path fill-rule="evenodd" clip-rule="evenodd" d="M257.498 9.03439C257.083 8.03903 256.907 6.9207 257.237 5.82879C258.187 2.68272 261.935 4.58403 262.316 6.43496C262.697 8.28589 261.642 12.3632 260.591 12.3518C260.171 12.3472 259.402 11.8092 258.688 10.9645L258.21 15.436L255.057 14.4725L257.498 9.03439Z" fill="#D4A181"/>
<path fill-rule="evenodd" clip-rule="evenodd" d="M258.642 9.14219C258.05 9.87862 257.358 10.3579 256.818 10.1928C255.792 9.87928 255.43 8.09173 255.825 6.40952C255.839 6.35041 255.854 6.29202 255.87 6.23436C254.585 6.75215 253.355 8.17096 251.919 7.73207C249.965 7.13496 250.245 2.40302 252.975 3.23727C254.831 3.80462 255.672 4.39242 256.352 5.08944C256.624 4.63779 256.959 4.29051 257.318 4.08593C257.408 4.01782 257.535 3.96491 257.691 3.92771C257.788 3.9009 257.885 3.88473 257.982 3.8799C258.504 3.82602 259.224 3.8958 259.999 4.09989C260.144 4.138 260.285 4.17937 260.422 4.22346C260.618 3.39885 261.362 2.91008 262.087 3.13138C262.812 3.3531 263.243 4.20364 263.048 5.03111C262.86 5.83134 262.157 6.31695 261.454 6.1475C261.025 6.16585 260.492 6.11267 259.918 5.98335C259.917 6.23512 259.884 6.51121 259.814 6.81293C259.751 7.07934 259.659 7.35401 259.544 7.62639C259.461 7.42304 259.322 7.26473 259.156 7.21396C258.691 7.07194 258.266 7.4091 258.157 7.87205C258.019 8.45959 258.216 8.97552 258.642 9.14219Z" fill="#191847"/>
<path fill-rule="evenodd" clip-rule="evenodd" d="M252.873 28.1846L262.979 47.4536L270.555 63.744H272.187L259.493 28.1846L252.873 28.1846Z" fill="#BA8B72"/>
<path fill-rule="evenodd" clip-rule="evenodd" d="M269.557 62.9918C269.405 63.4551 269.329 63.8017 269.329 64.0316C269.329 64.3114 269.37 64.7195 269.452 65.2561C269.736 65.2561 272.293 65.2561 277.122 65.2561C277.322 64.5046 277.207 64.0988 276.777 64.0389C276.348 63.9789 275.991 63.9248 275.707 63.8765L272.142 62.0638C272.073 62.0289 271.993 62.064 271.962 62.1423C271.962 62.1436 271.961 62.145 271.961 62.1463L271.731 62.7804C271.334 62.9919 271.011 63.0977 270.762 63.0977C270.56 63.0977 270.281 63.0047 269.925 62.8186L269.925 62.8186C269.789 62.7472 269.627 62.8156 269.565 62.9714C269.562 62.9781 269.56 62.9849 269.557 62.9918Z" fill="#E4E4E4"/>
<path fill-rule="evenodd" clip-rule="evenodd" d="M268.451 61.1354L271.598 60.0497C270.219 55.3485 268.529 50.1751 266.528 44.5294C264.527 38.8837 262.378 33.4354 260.081 28.1846H251.192C253.746 34.8266 256.454 40.8618 259.315 46.29C262.176 51.7183 265.221 56.6668 268.451 61.1354Z" fill="#DB2721"/>
<path fill-rule="evenodd" clip-rule="evenodd" d="M252.209 28.1846C251.255 34.9559 249.416 43.607 249.242 43.8739C249.126 44.0519 244.96 45.6443 236.742 48.6511L237.095 50.2924C246.894 48.6798 252.058 47.4287 252.585 46.5391C253.376 45.2046 257.327 34.6625 258.857 28.1846H252.209Z" fill="#D4A181"/>
<path fill-rule="evenodd" clip-rule="evenodd" d="M239.631 47.2324L240.252 49.8757C247.581 50.6089 252.072 50.0791 253.725 48.2864C255.377 46.4938 257.26 39.7931 259.374 28.1846H250.898C249.559 37.6904 248.81 42.6429 248.652 43.0419C248.494 43.441 245.487 44.8378 239.631 47.2324Z" fill="#FF4133"/>
<path fill-rule="evenodd" clip-rule="evenodd" d="M237.145 47.9672C236.718 47.8767 236.406 47.8515 236.207 47.8914C235.966 47.94 235.62 48.0568 235.171 48.2417C235.22 48.5613 235.664 51.4332 236.503 56.8574C237.187 56.9508 237.517 56.7511 237.494 56.2583C237.471 55.7655 237.456 55.3554 237.449 55.028L238.395 50.7087C238.413 50.6256 238.369 50.5414 238.296 50.5206C238.294 50.5202 238.293 50.5199 238.292 50.5196L237.705 50.3723C237.453 49.9625 237.306 49.618 237.262 49.3388C237.227 49.1119 237.259 48.7825 237.358 48.3505L237.358 48.3505C237.396 48.1848 237.309 48.0153 237.164 47.972C237.157 47.9702 237.151 47.9686 237.145 47.9672Z" fill="#E4E4E4"/>
<path fill-rule="evenodd" clip-rule="evenodd" d="M264.885 26.9498L268.604 31.3871C269.708 31.9767 270.607 32.6151 271.303 33.3022C271.457 33.5299 271.619 33.9611 270.868 33.7411C270.116 33.5212 269.317 33.3283 269.166 33.6035C269.016 33.8786 269.422 34.3256 269.147 34.6827C268.965 34.9207 268.399 34.1179 267.45 32.2742L263.529 29.4226L264.885 26.9498ZM245.782 21.5714L248.065 22.5329C244.37 28.1782 242.397 31.1593 242.147 31.4763C241.584 32.1894 241.804 33.7221 241.853 34.5173C240.84 34.6003 241.458 32.9915 240.173 33.1185C238.999 33.2344 237.928 33.8824 237.029 32.5851C236.918 32.4256 236.882 31.983 237.354 31.8445C238.529 31.4995 240.295 30.775 240.613 30.4274C241.047 29.9533 242.77 27.0013 245.782 21.5714Z" fill="#D4A181"/>
<path fill-rule="evenodd" clip-rule="evenodd" d="M265.82 27.5388C266.376 27.6043 266.958 27.8284 267.561 28.2037C267.858 28.3883 267.967 28.8123 267.805 29.1507C267.711 29.3473 267.546 29.4717 267.367 29.5053C267.473 29.632 267.582 29.7584 267.691 29.8845L266.225 32.1772C262.088 28.6859 258.126 25.8841 256.842 21.2355C256.411 19.6753 257.382 14.8655 257.593 13.087L259.129 12.7051C260.398 17.8141 262.402 22.8737 265.82 27.5388Z" fill="#69A1AC"/>
<path fill-rule="evenodd" clip-rule="evenodd" d="M250.023 28.4938C254.152 29.8681 257.466 30.5346 259.966 30.4933C260.275 30.4882 260.49 29.0127 260.413 28.5826C259.218 21.8837 258.504 17.0122 259.177 12.6615C258.743 12.8181 258.043 12.7139 257.076 12.3487C253.716 16.2958 251.695 21.1936 250.023 28.4938Z" fill="#191847"/>
<path fill-rule="evenodd" clip-rule="evenodd" d="M249.125 29.0768C249.006 28.8946 248.967 28.6496 249.04 28.42L249.18 27.9827C249.274 27.6864 249.526 27.5075 249.789 27.5243C249.869 27.3042 249.943 27.0843 250.01 26.8648C250.576 25.0103 250.403 23.0457 250.709 21.2121C248.231 22.8747 245.74 26.1049 243.235 30.9026L240.836 29.545C240.996 29.1554 241.158 28.7716 241.323 28.3935C241.061 28.1456 240.854 27.2099 241.122 27.1142C241.398 27.0154 241.683 26.9639 241.976 26.9588C245.527 19.4576 250.221 14.3933 256.057 11.766L256.523 11.8597L257.58 12.0723C256.086 18.7463 259.998 34.7595 255.897 46.9389C251.765 47.152 246.576 42.8602 240.662 44.2661C241.653 39.2285 246.694 34.0899 249.125 29.0768L249.125 29.0768Z" fill="#89C5CC"/>
<path fill-rule="evenodd" clip-rule="evenodd" d="M256.588 12.0301L255.522 14.3147L256.633 16.4114L255.154 17.5862L257.278 24.1394L254.474 17.4617L255.932 16.2705L254.945 14.4165L256.588 12.0301Z" fill="black" fill-opacity="0.1"/>
<path fill-rule="evenodd" clip-rule="evenodd" d="M256.031 26.2512C255.735 26.1917 255.538 25.8699 255.59 25.5324C255.642 25.195 255.924 24.9696 256.22 25.0291C256.516 25.0886 256.714 25.4104 256.662 25.7479C256.609 26.0853 256.327 26.3107 256.031 26.2512ZM256.158 29.8992C255.862 29.8397 255.664 29.5179 255.717 29.1805C255.769 28.843 256.051 28.6177 256.347 28.6772C256.643 28.7367 256.84 29.0585 256.788 29.3959C256.736 29.7334 256.454 29.9587 256.158 29.8992ZM255.749 33.4395C255.453 33.38 255.255 33.0582 255.307 32.7208C255.36 32.3833 255.642 32.158 255.938 32.2175C256.233 32.277 256.431 32.5988 256.379 32.9362C256.327 33.2737 256.045 33.499 255.749 33.4395Z" fill="black" fill-opacity="0.4"/>
<path fill-rule="evenodd" clip-rule="evenodd" d="M308.791 5.99869C308.017 5.10905 307.493 4.01878 307.581 2.7971C307.833 -0.722893 312.837 0.0514608 313.811 1.82805C314.784 3.60464 314.668 8.11112 313.41 8.42864C312.909 8.55527 311.84 8.24508 310.752 7.60308L311.435 12.3329H307.403L308.791 5.99869Z" fill="#FFDAC6"/>
<path fill-rule="evenodd" clip-rule="evenodd" d="M310.954 3.18586C311.108 5.29077 311.516 6.34322 312.178 6.34322C313.172 6.34322 314.014 5.72581 314.45 5.72581C314.768 5.72581 314.697 6.11509 314.486 6.40372C314.313 6.64184 313.466 6.87136 313.466 7.24053C313.466 7.6097 314.135 7.3241 314.135 7.54305C314.135 7.90521 314.252 8.58615 313.61 8.58615C312.961 8.58615 311.098 8.35433 310.779 7.41018C310.573 6.80086 310.44 5.53822 310.379 3.62228C310.34 3.61769 310.3 3.61534 310.259 3.61534C309.702 3.61534 309.251 4.05718 309.251 4.60223C309.251 4.87892 309.367 5.12902 309.555 5.30822C309.322 5.63054 309.06 5.96725 308.761 6.31468C307.636 5.65371 306.801 3.71879 307.901 1.86003C308.205 0.949449 308.893 0.463075 309.706 0.237236C310.364 -0.0324804 311.048 -0.0628912 311.625 0.0988011C312.756 0.193805 313.766 0.531544 314.053 0.732119C314.053 1.78073 313.845 2.09185 312.073 2.06443C311.637 2.28963 311.302 2.67744 310.954 3.18586Z" fill="#191847"/>
<path fill-rule="evenodd" clip-rule="evenodd" d="M307.08 25.9443L315.325 46.3774L320.854 63.6519H323.038L314.584 25.9443L307.08 25.9443Z" fill="#FFDAC6"/>
<path fill-rule="evenodd" clip-rule="evenodd" d="M305.42 25.9443C305.332 33.1247 304.052 42.7918 303.847 43.2394C303.711 43.5378 299.003 47.3324 289.724 54.6231L291.228 56.199C302.176 49.9481 307.904 46.4058 308.41 45.5721C309.17 44.3215 311.645 32.8136 313.631 25.9443H305.42Z" fill="#FFDAC6"/>
<path fill-rule="evenodd" clip-rule="evenodd" d="M289.522 54.0969C289.017 54.2716 288.669 54.4374 288.478 54.5942C288.246 54.7848 287.94 55.1009 287.56 55.5424C287.786 55.806 289.816 58.1749 293.65 62.649C294.432 62.3214 294.677 61.9382 294.386 61.4995C294.094 61.0608 293.856 60.6933 293.671 60.3973L292.344 55.8585C292.318 55.7712 292.225 55.7207 292.136 55.7457C292.135 55.7461 292.133 55.7465 292.132 55.747L291.424 55.9669C290.932 55.7427 290.588 55.5155 290.391 55.2852C290.231 55.0981 290.086 54.7763 289.958 54.3198L289.958 54.3198C289.909 54.1446 289.724 54.0417 289.545 54.0898C289.537 54.0919 289.53 54.0942 289.522 54.0969Z" fill="#191847"/>
<path fill-rule="evenodd" clip-rule="evenodd" d="M319.961 62.8544C319.773 63.3456 319.679 63.7131 319.679 63.957C319.679 64.2536 319.729 64.6864 319.83 65.2555C320.182 65.2555 323.34 65.2555 329.304 65.2555C329.551 64.4585 329.408 64.0282 328.878 63.9647C328.348 63.9011 327.907 63.8437 327.556 63.7925L323.153 61.8703C323.068 61.8333 322.968 61.8705 322.931 61.9535C322.93 61.9549 322.929 61.9564 322.929 61.9578L322.646 62.6301C322.155 62.8545 321.756 62.9666 321.449 62.9666C321.199 62.9666 320.855 62.868 320.415 62.6707L320.415 62.6707C320.247 62.595 320.047 62.6675 319.97 62.8327C319.966 62.8398 319.963 62.847 319.961 62.8544Z" fill="#191847"/>
<path fill-rule="evenodd" clip-rule="evenodd" d="M312.624 61.8727L323.005 60.7694L315.311 25.9443H306.013L312.624 61.8727Z" fill="#69A1AC"/>
<path fill-rule="evenodd" clip-rule="evenodd" d="M291.871 52.0806L298.681 59.9734C305.854 52.3026 310.035 47.2974 311.226 44.9578C312.417 42.6182 313.487 36.2804 314.437 25.9443H303.969C303.45 35.0375 303.1 39.7957 302.919 40.2189C302.738 40.642 299.056 44.5959 291.871 52.0806Z" fill="#89C5CC"/>
<path fill-rule="evenodd" clip-rule="evenodd" d="M321.774 23.9048L326.532 28.4503C327.917 29.0286 329.051 29.6671 329.936 30.3659C330.135 30.6008 330.351 31.0509 329.415 30.8495C328.48 30.6481 327.486 30.4775 327.311 30.7754C327.135 31.0734 327.653 31.53 327.328 31.9199C327.111 32.1799 326.382 31.353 325.142 29.4392L320.194 26.5826L321.774 23.9048ZM298.505 19.791L302.183 19.8045C299.382 28.6921 297.895 33.3455 297.722 33.7647C297.333 34.708 298.156 36.1445 298.508 36.9165C297.362 37.4184 297.484 35.5595 296.039 36.2178C294.72 36.8187 293.716 37.9075 292.192 36.9868C292.005 36.8735 291.8 36.4473 292.296 36.1142C293.532 35.2844 295.313 33.832 295.553 33.354C295.882 32.7021 296.865 28.1811 298.505 19.791Z" fill="#FFDAC6"/>
<path fill-rule="evenodd" clip-rule="evenodd" d="M309.713 9.5736L311.166 9.32964C313.454 17.2498 325.211 22.6484 325.932 25.6092C326.197 26.695 325.399 27.2438 325.811 27.5746L323.923 28.9279C323.604 28.5626 322.921 29.2308 321.496 28.7634C320.072 28.296 309.713 18.9517 309.713 9.5736Z" fill="#191847"/>
<path fill-rule="evenodd" clip-rule="evenodd" d="M312.157 10.6266C311.99 21.1122 318.18 23.7869 316.801 27.9934C315.662 31.467 304.764 35.201 302.878 31.7961C302.114 30.4178 301.768 28.7509 301.729 26.9386C301.247 28.3309 300.866 29.5296 300.585 30.5345C300.101 32.2681 298.226 32.5437 298.226 33.2116L295.755 32.5437C295.923 31.6364 294.758 31.1946 295.07 29.1675C296.469 20.0853 300.229 13.5018 306.35 9.41718L306.413 8.53052C306.439 8.16804 306.76 7.89474 307.13 7.92009L311.655 8.22988C312.025 8.25522 312.304 8.56962 312.278 8.9321L312.157 10.6266Z" fill="#2F3676"/>
<path fill-rule="evenodd" clip-rule="evenodd" d="M355.15 27.4038C355.441 31.2988 374.195 42.7663 374.304 43.0881C374.353 43.2311 372.407 47.7515 368.467 56.6492L370.106 57.2737C376.15 47.8504 379.016 42.6366 378.706 41.6325C378.261 40.195 373.411 35.4659 364.155 27.4453L355.15 27.4038Z" fill="#B28B67"/>
<path fill-rule="evenodd" clip-rule="evenodd" d="M368.898 54.6399L371.574 55.5951C377.218 49.3524 379.43 44.2016 379.027 41.5772C378.758 39.8276 373.925 35.1063 364.527 27.4135L354.958 27.4135C355.284 36.4338 372.666 43.1226 372.899 43.507C373.131 43.8913 370.843 47.6561 368.898 54.6399Z" fill="#2F3676"/>
<path fill-rule="evenodd" clip-rule="evenodd" d="M367.859 56.351C367.524 56.7361 367.316 57.0393 367.234 57.2607C367.135 57.5299 367.035 57.9391 366.935 58.4883C367.252 58.602 370.105 59.6237 375.492 61.5533C375.981 60.9095 375.998 60.473 375.54 60.2437C375.082 60.0144 374.703 59.8198 374.404 59.6598L371.072 56.4903C371.008 56.4293 370.906 56.431 370.844 56.4941C370.843 56.4952 370.842 56.4963 370.841 56.4974L370.359 57.0161C369.84 57.0609 369.442 57.0336 369.165 56.9343C368.94 56.8536 368.662 56.6526 368.331 56.3314L368.331 56.3314C368.204 56.2081 368 56.2094 367.874 56.3343C367.869 56.3397 367.864 56.3452 367.859 56.351Z" fill="#AAAAAA"/>
<path fill-rule="evenodd" clip-rule="evenodd" d="M357.306 27.4038L348.952 47.0656L340.741 63.688H342.678L363.873 27.4038H357.306Z" fill="#997659"/>
<path fill-rule="evenodd" clip-rule="evenodd" d="M340.625 62.9361C340.445 63.4106 340.354 63.7657 340.354 64.0013C340.354 64.2878 340.403 64.7059 340.5 65.2556C340.838 65.2556 343.873 65.2556 349.606 65.2556C349.842 64.4857 349.706 64.07 349.196 64.0086C348.686 63.9473 348.263 63.8918 347.925 63.8424L343.693 61.9855C343.612 61.9498 343.516 61.9858 343.48 62.0659C343.479 62.0673 343.479 62.0687 343.478 62.07L343.206 62.7195C342.734 62.9362 342.351 63.0446 342.056 63.0446C341.816 63.0446 341.485 62.9493 341.062 62.7587L341.062 62.7587C340.9 62.6856 340.709 62.7556 340.634 62.9152C340.631 62.922 340.628 62.929 340.625 62.9361Z" fill="#ABABAB"/>
<path fill-rule="evenodd" clip-rule="evenodd" d="M341.482 60.2349L345.787 61.0263C349.115 56.2293 363.044 36.5602 364.571 27.4038H354.988C349.888 34.023 344.655 55.3586 341.482 60.2349Z" fill="#5C63AB"/>
<path fill-rule="evenodd" clip-rule="evenodd" d="M360.294 8.27088C359.782 7.26729 359.55 6.13456 359.919 5.01966C360.983 1.80732 365.467 3.67177 365.956 5.54496C366.446 7.41814 365.278 11.5782 364.03 11.5853C363.532 11.5881 362.608 11.0554 361.745 10.21L361.269 14.7602L357.509 13.8377L360.294 8.27088Z" fill="#B28B67"/>
<path fill-rule="evenodd" clip-rule="evenodd" d="M366.124 6.37307C366.141 6.15 366.11 5.89009 366.088 5.66968C366.059 5.38552 365.976 5.11511 365.874 4.85471C365.683 4.36444 365.423 3.90012 365.109 3.49078C364.535 2.7431 363.704 2.18915 362.778 2.07558C362.311 2.01824 361.827 2.07902 361.381 2.26811C360.978 2.43895 360.557 2.73288 360.112 2.65207C359.627 2.56413 359.293 2.0457 358.975 1.69788C358.615 1.30575 358.209 0.984516 357.725 0.779643C356.914 0.436476 356.049 0.520199 355.296 1.05373C354.493 1.62148 353.775 2.56659 353.941 3.62029C353.971 3.81617 354.031 3.98953 354.139 4.1477C354.239 4.29274 354.404 4.46163 354.41 4.6559C354.416 4.86239 354.188 5.07086 354.08 5.22928C353.925 5.45625 353.784 5.69963 353.742 5.97731C353.673 6.43334 353.852 6.92878 354.081 7.29576C354.314 7.6692 354.65 7.93306 355.035 8.11121C355.292 8.23016 355.561 8.32701 355.841 8.37475C355.98 8.39846 356.11 8.39102 356.25 8.39406C356.386 8.39701 356.449 8.44797 356.541 8.54355C356.967 8.98761 357.481 9.24504 358.078 9.34113C358.582 9.42221 359.181 9.44514 359.668 9.21386C360.208 8.95699 360.327 8.44916 360.359 7.88307C360.457 7.96439 360.757 8.07353 360.627 7.81327C360.576 7.71019 360.446 7.64166 360.365 7.56857C360.271 7.48347 360.179 7.38091 360.118 7.26499C359.873 6.79692 360.417 6.10011 360.88 6.07687C361.568 6.04236 361.487 6.95926 361.886 7.29932C362.115 7.49484 362.435 7.38293 362.678 7.24813C363.003 7.06755 363.265 6.78675 363.504 6.49421C363.7 6.25331 363.889 6.00641 364.088 5.76746C364.18 5.65588 364.481 5.3499 364.412 5.18097C364.892 5.20425 365.355 5.51496 365.688 5.85509C365.825 5.99569 365.921 6.1371 365.963 6.33605C365.972 6.37868 365.984 6.50176 366.034 6.51889C366.127 6.55079 366.12 6.42912 366.124 6.37307Z" fill="#191847"/>
<path fill-rule="evenodd" clip-rule="evenodd" d="M370.548 26.0285L375.631 29.8198C377.021 30.2128 378.18 30.692 379.107 31.2573C379.325 31.4586 379.585 31.8632 378.669 31.7783C377.752 31.6934 376.784 31.6445 376.652 31.9489C376.52 32.2534 377.069 32.6296 376.805 33.0389C376.63 33.3117 375.836 32.6063 374.423 30.9227L369.361 28.7645L370.548 26.0285ZM350.776 25.8167L354.149 25.8877C351.949 32.4365 350.763 35.9109 350.59 36.311C350.2 37.2111 350.966 38.6053 351.291 39.353C350.182 39.8165 350.331 38.0319 348.931 38.6408C347.653 39.1965 346.67 40.2264 345.221 39.3163C345.043 39.2044 344.853 38.7913 345.335 38.4794C346.537 37.7023 348.274 36.3359 348.513 35.8804C348.839 35.2593 349.594 31.9047 350.776 25.8167Z" fill="#B28B67"/>
<path fill-rule="evenodd" clip-rule="evenodd" d="M360.608 12.1195L362.008 11.909C367.109 16.3792 369.087 24.8327 375.356 29.4005L373.795 31.229C362.806 29.7045 360.259 19.391 360.608 12.1195Z" fill="#E87613"/>
<path fill-rule="evenodd" clip-rule="evenodd" d="M354.219 29.1935C359.816 29.2896 363.933 29.3603 366.57 29.4056C367.134 29.4153 367.042 28.6155 366.968 28.2114C366.109 23.5476 362.522 18.4745 362.639 11.8588L359.087 11.2505C356.058 15.8408 354.937 21.5373 354.219 29.1935Z" fill="#DDE3E9"/>
<path fill-rule="evenodd" clip-rule="evenodd" d="M354.557 15.7359C354.042 15.5814 353.638 15.2346 353.346 14.6957C352.084 12.3724 352.577 11.1137 353.976 10.7212C355.375 10.3287 356.601 11.2078 358.818 11.2458C358.938 11.2479 359.048 11.2572 359.149 11.2737L360.263 11.3552C363.274 22.0301 364.031 29.1307 362.533 32.657L352.812 32.49C352.213 33.7953 351.642 34.8924 351.1 35.7813L348.451 35.7358C348.342 27.8381 350.377 21.1715 354.557 15.7359Z" fill="#FF9B21"/>
<path fill-rule="evenodd" clip-rule="evenodd" d="M355.026 27.072C355.287 29.5823 355.752 31.4088 356.42 32.5517L352.812 32.4898C353.511 30.9672 354.249 29.1612 355.026 27.072Z" fill="black" fill-opacity="0.1"/>
</g>
<mask id="path-92-outside-1_31_164" maskUnits="userSpaceOnUse" x="378" y="50" width="55" height="21" fill="black">
<rect fill="white" x="378" y="50" width="55" height="21"/>
<path d="M388.864 63.578C389.248 63.578 389.44 63.74 389.44 64.064V64.514C389.44 64.838 389.248 65 388.864 65H386.308C385.924 65 385.732 64.838 385.732 64.514V64.064C385.732 63.74 385.924 63.578 386.308 63.578H386.776V60.104C386.776 59.06 386.638 58.322 386.362 57.89C386.098 57.446 385.648 57.224 385.012 57.224C384.568 57.224 384.136 57.374 383.716 57.674C383.308 57.962 382.972 58.34 382.708 58.808C382.456 59.276 382.33 59.768 382.33 60.284V63.578H382.798C383.194 63.578 383.392 63.74 383.392 64.064V64.514C383.392 64.838 383.194 65 382.798 65H380.26C379.864 65 379.666 64.838 379.666 64.514V64.064C379.666 63.74 379.864 63.578 380.26 63.578H380.728V53.102H380.26C379.864 53.102 379.666 52.94 379.666 52.616V52.166C379.666 51.842 379.864 51.68 380.26 51.68H381.682C381.862 51.68 382.012 51.746 382.132 51.878C382.264 51.998 382.33 52.154 382.33 52.346V58.016C382.594 57.392 383.014 56.87 383.59 56.45C384.166 56.03 384.766 55.82 385.39 55.82C386.386 55.82 387.136 56.162 387.64 56.846C388.144 57.518 388.396 58.52 388.396 59.852V63.578H388.864ZM392.469 54.254C392.133 54.254 391.851 54.14 391.623 53.912C391.395 53.684 391.281 53.402 391.281 53.066C391.281 52.73 391.395 52.454 391.623 52.238C391.851 52.01 392.133 51.896 392.469 51.896C392.805 51.896 393.081 52.01 393.297 52.238C393.525 52.454 393.639 52.73 393.639 53.066C393.639 53.402 393.525 53.684 393.297 53.912C393.081 54.14 392.805 54.254 392.469 54.254ZM391.479 65C391.095 65 390.903 64.838 390.903 64.514V64.064C390.903 63.74 391.095 63.578 391.479 63.578H391.947V57.422H391.479C391.095 57.422 390.903 57.26 390.903 56.936V56.486C390.903 56.162 391.095 56 391.479 56H392.901C393.093 56 393.249 56.066 393.369 56.198C393.501 56.318 393.567 56.474 393.567 56.666V63.578H394.035C394.431 63.578 394.629 63.74 394.629 64.064V64.514C394.629 64.838 394.431 65 394.035 65H391.479ZM396.537 65C396.141 65 395.943 64.838 395.943 64.514V64.064C395.943 63.74 396.141 63.578 396.537 63.578H397.005V53.102H396.537C396.141 53.102 395.943 52.94 395.943 52.616V52.166C395.943 51.842 396.141 51.68 396.537 51.68H397.959C398.139 51.68 398.289 51.746 398.409 51.878C398.541 51.998 398.607 52.154 398.607 52.346V63.578H399.075C399.471 63.578 399.669 63.74 399.669 64.064V64.514C399.669 64.838 399.471 65 399.075 65H396.537ZM401.6 65C401.204 65 401.006 64.838 401.006 64.514V64.064C401.006 63.74 401.204 63.578 401.6 63.578H402.068V53.102H401.6C401.204 53.102 401.006 52.94 401.006 52.616V52.166C401.006 51.842 401.204 51.68 401.6 51.68H403.022C403.202 51.68 403.352 51.746 403.472 51.878C403.604 51.998 403.67 52.154 403.67 52.346V63.578H404.138C404.534 63.578 404.732 63.74 404.732 64.064V64.514C404.732 64.838 404.534 65 404.138 65H401.6ZM407.832 54.254C407.496 54.254 407.214 54.14 406.986 53.912C406.758 53.684 406.644 53.402 406.644 53.066C406.644 52.73 406.758 52.454 406.986 52.238C407.214 52.01 407.496 51.896 407.832 51.896C408.168 51.896 408.444 52.01 408.66 52.238C408.888 52.454 409.002 52.73 409.002 53.066C409.002 53.402 408.888 53.684 408.66 53.912C408.444 54.14 408.168 54.254 407.832 54.254ZM406.842 65C406.458 65 406.266 64.838 406.266 64.514V64.064C406.266 63.74 406.458 63.578 406.842 63.578H407.31V57.422H406.842C406.458 57.422 406.266 57.26 406.266 56.936V56.486C406.266 56.162 406.458 56 406.842 56H408.264C408.456 56 408.612 56.066 408.732 56.198C408.864 56.318 408.93 56.474 408.93 56.666V63.578H409.398C409.794 63.578 409.992 63.74 409.992 64.064V64.514C409.992 64.838 409.794 65 409.398 65H406.842ZM420.595 63.578C420.979 63.578 421.171 63.74 421.171 64.064V64.514C421.171 64.838 420.979 65 420.595 65H418.093C417.697 65 417.499 64.838 417.499 64.514V64.064C417.499 63.74 417.697 63.578 418.093 63.578H418.507V60.104C418.507 59.036 418.375 58.292 418.111 57.872C417.859 57.44 417.415 57.224 416.779 57.224C416.335 57.224 415.909 57.374 415.501 57.674C415.105 57.962 414.781 58.34 414.529 58.808C414.289 59.276 414.169 59.768 414.169 60.284V63.578H414.583C414.979 63.578 415.177 63.74 415.177 64.064V64.514C415.177 64.838 414.979 65 414.583 65H412.081C411.697 65 411.505 64.838 411.505 64.514V64.064C411.505 63.74 411.697 63.578 412.081 63.578H412.549V57.422H412.081C411.697 57.422 411.505 57.26 411.505 56.936V56.486C411.505 56.162 411.697 56 412.081 56H413.503C413.695 56 413.851 56.066 413.971 56.198C414.103 56.318 414.169 56.474 414.169 56.666V58.016C414.421 57.38 414.829 56.858 415.393 56.45C415.969 56.03 416.563 55.82 417.175 55.82C419.143 55.82 420.127 57.164 420.127 59.852V63.578H420.595ZM431.362 56C431.758 56 431.956 56.162 431.956 56.486V56.936C431.956 57.26 431.758 57.422 431.362 57.422H430.894V64.55C430.894 66.122 430.54 67.31 429.832 68.114C429.124 68.918 428.074 69.32 426.682 69.32C426.046 69.32 425.464 69.224 424.936 69.032C424.42 68.84 424.012 68.582 423.712 68.258C423.424 67.934 423.28 67.568 423.28 67.16C423.28 66.8 423.376 66.518 423.568 66.314C423.76 66.11 424.018 66.008 424.342 66.008C424.618 66.008 424.846 66.104 425.026 66.296C425.218 66.488 425.314 66.728 425.314 67.016C425.314 67.232 425.26 67.4 425.152 67.52C425.488 67.784 425.968 67.916 426.592 67.916C427.54 67.916 428.224 67.658 428.644 67.142C429.076 66.626 429.292 65.792 429.292 64.64V63.2C429.076 63.764 428.686 64.238 428.122 64.622C427.57 64.994 426.982 65.18 426.358 65.18C425.638 65.18 425.002 64.994 424.45 64.622C423.91 64.25 423.49 63.722 423.19 63.038C422.902 62.342 422.758 61.532 422.758 60.608C422.758 59.12 423.106 57.95 423.802 57.098C424.51 56.246 425.476 55.82 426.7 55.82C427.228 55.82 427.726 55.952 428.194 56.216C428.674 56.48 429.076 56.846 429.4 57.314L429.472 56.576C429.508 56.192 429.706 56 430.066 56H431.362ZM426.718 63.776C427.186 63.776 427.618 63.65 428.014 63.398C428.41 63.134 428.722 62.78 428.95 62.336C429.178 61.892 429.292 61.406 429.292 60.878V58.538C428.956 58.118 428.578 57.794 428.158 57.566C427.75 57.338 427.318 57.224 426.862 57.224C426.058 57.224 425.446 57.524 425.026 58.124C424.606 58.712 424.396 59.57 424.396 60.698C424.396 61.67 424.6 62.426 425.008 62.966C425.416 63.506 425.986 63.776 426.718 63.776Z"/>
</mask>
<path d="M386.776 63.578V64.578H387.776V63.578H386.776ZM386.362 57.89L385.502 58.4011L385.511 58.4149L385.519 58.4284L386.362 57.89ZM383.716 57.674L384.293 58.491L384.297 58.4877L383.716 57.674ZM382.708 58.808L381.837 58.3167L381.832 58.3252L381.828 58.3339L382.708 58.808ZM382.33 63.578H381.33V64.578H382.33V63.578ZM380.728 63.578V64.578H381.728V63.578H380.728ZM380.728 53.102H381.728V52.102H380.728V53.102ZM382.132 51.878L381.392 52.5507L381.424 52.5859L381.459 52.6179L382.132 51.878ZM382.33 58.016H381.33L383.251 58.4056L382.33 58.016ZM383.59 56.45L384.179 57.258H384.179L383.59 56.45ZM387.64 56.846L386.835 57.4392L386.84 57.446L387.64 56.846ZM388.396 63.578H387.396V64.578H388.396V63.578ZM388.864 64.578C388.939 64.578 388.81 64.5975 388.651 64.4638C388.568 64.3933 388.508 64.3055 388.474 64.2188C388.442 64.1382 388.44 64.0796 388.44 64.064H390.44C390.44 63.6991 390.324 63.2583 389.941 62.9352C389.59 62.6395 389.173 62.578 388.864 62.578V64.578ZM388.44 64.064V64.514H390.44V64.064H388.44ZM388.44 64.514C388.44 64.4984 388.442 64.4398 388.474 64.3592C388.508 64.2725 388.568 64.1847 388.651 64.1142C388.81 63.9805 388.939 64 388.864 64V66C389.173 66 389.59 65.9385 389.941 65.6428C390.324 65.3197 390.44 64.8789 390.44 64.514H388.44ZM388.864 64H386.308V66H388.864V64ZM386.308 64C386.233 64 386.362 63.9805 386.521 64.1142C386.604 64.1847 386.664 64.2725 386.698 64.3592C386.73 64.4398 386.732 64.4984 386.732 64.514H384.732C384.732 64.8789 384.848 65.3197 385.231 65.6428C385.582 65.9385 385.999 66 386.308 66V64ZM386.732 64.514V64.064H384.732V64.514H386.732ZM386.732 64.064C386.732 64.0796 386.73 64.1382 386.698 64.2188C386.664 64.3055 386.604 64.3933 386.521 64.4638C386.362 64.5975 386.233 64.578 386.308 64.578V62.578C385.999 62.578 385.582 62.6395 385.231 62.9352C384.848 63.2583 384.732 63.6991 384.732 64.064H386.732ZM386.308 64.578H386.776V62.578H386.308V64.578ZM387.776 63.578V60.104H385.776V63.578H387.776ZM387.776 60.104C387.776 59.0305 387.645 58.0408 387.205 57.3516L385.519 58.4284C385.631 58.6032 385.776 59.0895 385.776 60.104H387.776ZM387.222 57.3789C386.734 56.5582 385.906 56.224 385.012 56.224V58.224C385.39 58.224 385.462 58.3338 385.502 58.4011L387.222 57.3789ZM385.012 56.224C384.327 56.224 383.696 56.4594 383.135 56.8603L384.297 58.4877C384.576 58.2886 384.809 58.224 385.012 58.224V56.224ZM383.139 56.857C382.601 57.2368 382.168 57.7296 381.837 58.3167L383.579 59.2993C383.776 58.9504 384.015 58.6872 384.293 58.491L383.139 56.857ZM381.828 58.3339C381.5 58.943 381.33 59.5974 381.33 60.284H383.33C383.33 59.9386 383.412 59.609 383.588 59.2821L381.828 58.3339ZM381.33 60.284V63.578H383.33V60.284H381.33ZM382.33 64.578H382.798V62.578H382.33V64.578ZM382.798 64.578C382.885 64.578 382.765 64.5999 382.61 64.4735C382.527 64.4055 382.465 64.3184 382.429 64.2287C382.395 64.1451 382.392 64.0829 382.392 64.064H384.392C384.392 63.689 384.268 63.2454 383.877 62.9255C383.524 62.6371 383.107 62.578 382.798 62.578V64.578ZM382.392 64.064V64.514H384.392V64.064H382.392ZM382.392 64.514C382.392 64.4951 382.395 64.4329 382.429 64.3493C382.465 64.2596 382.527 64.1725 382.61 64.1045C382.765 63.9781 382.885 64 382.798 64V66C383.107 66 383.524 65.9409 383.877 65.6525C384.268 65.3326 384.392 64.889 384.392 64.514H382.392ZM382.798 64H380.26V66H382.798V64ZM380.26 64C380.173 64 380.293 63.9781 380.448 64.1045C380.531 64.1725 380.593 64.2596 380.629 64.3493C380.663 64.4329 380.666 64.4951 380.666 64.514H378.666C378.666 64.889 378.79 65.3326 379.181 65.6525C379.534 65.9409 379.951 66 380.26 66V64ZM380.666 64.514V64.064H378.666V64.514H380.666ZM380.666 64.064C380.666 64.0829 380.663 64.1451 380.629 64.2287C380.593 64.3184 380.531 64.4055 380.448 64.4735C380.293 64.5999 380.173 64.578 380.26 64.578V62.578C379.951 62.578 379.534 62.6371 379.181 62.9255C378.79 63.2454 378.666 63.689 378.666 64.064H380.666ZM380.26 64.578H380.728V62.578H380.26V64.578ZM381.728 63.578V53.102H379.728V63.578H381.728ZM380.728 52.102H380.26V54.102H380.728V52.102ZM380.26 52.102C380.173 52.102 380.293 52.0801 380.448 52.2065C380.531 52.2745 380.593 52.3616 380.629 52.4513C380.663 52.5349 380.666 52.5971 380.666 52.616H378.666C378.666 52.991 378.79 53.4346 379.181 53.7545C379.534 54.0429 379.951 54.102 380.26 54.102V52.102ZM380.666 52.616V52.166H378.666V52.616H380.666ZM380.666 52.166C380.666 52.1849 380.663 52.2471 380.629 52.3307C380.593 52.4204 380.531 52.5075 380.448 52.5755C380.293 52.7019 380.173 52.68 380.26 52.68V50.68C379.951 50.68 379.534 50.7391 379.181 51.0275C378.79 51.3474 378.666 51.791 378.666 52.166H380.666ZM380.26 52.68H381.682V50.68H380.26V52.68ZM381.682 52.68C381.647 52.68 381.591 52.6729 381.527 52.6448C381.463 52.6166 381.418 52.579 381.392 52.5507L382.872 51.2053C382.56 50.8627 382.141 50.68 381.682 50.68V52.68ZM381.459 52.6179C381.424 52.5858 381.386 52.5371 381.36 52.4746C381.334 52.414 381.33 52.3661 381.33 52.346H383.33C383.33 51.8964 383.162 51.4632 382.805 51.1381L381.459 52.6179ZM381.33 52.346V58.016H383.33V52.346H381.33ZM383.251 58.4056C383.441 57.9574 383.742 57.577 384.179 57.258L383.001 55.642C382.286 56.163 381.747 56.8266 381.409 57.6264L383.251 58.4056ZM384.179 57.258C384.609 56.9443 385.007 56.82 385.39 56.82V54.82C384.525 54.82 383.723 55.1157 383.001 55.642L384.179 57.258ZM385.39 56.82C386.13 56.82 386.554 57.0572 386.835 57.4392L388.445 56.2528C387.718 55.2668 386.642 54.82 385.39 54.82V56.82ZM386.84 57.446C387.158 57.8698 387.396 58.6186 387.396 59.852H389.396C389.396 58.4214 389.13 57.1662 388.44 56.246L386.84 57.446ZM387.396 59.852V63.578H389.396V59.852H387.396ZM388.396 64.578H388.864V62.578H388.396V64.578ZM391.623 53.912L392.33 53.2049L392.33 53.2049L391.623 53.912ZM391.623 52.238L392.311 52.964L392.321 52.9547L392.33 52.9451L391.623 52.238ZM393.297 52.238L392.571 52.9257L392.59 52.9454L392.609 52.964L393.297 52.238ZM393.297 53.912L392.59 53.2049L392.58 53.2144L392.571 53.2243L393.297 53.912ZM391.947 63.578V64.578H392.947V63.578H391.947ZM391.947 57.422H392.947V56.422H391.947V57.422ZM393.369 56.198L392.629 56.8707L392.661 56.9059L392.696 56.9379L393.369 56.198ZM393.567 63.578H392.567V64.578H393.567V63.578ZM392.469 53.254C392.386 53.254 392.362 53.2367 392.33 53.2049L390.916 54.6191C391.34 55.0433 391.88 55.254 392.469 55.254V53.254ZM392.33 53.2049C392.298 53.173 392.281 53.1492 392.281 53.066H390.281C390.281 53.6548 390.492 54.195 390.916 54.6191L392.33 53.2049ZM392.281 53.066C392.281 53.0126 392.29 52.9914 392.291 52.9888C392.292 52.9865 392.293 52.9846 392.295 52.982C392.296 52.9793 392.301 52.9732 392.311 52.964L390.935 51.512C390.493 51.9311 390.281 52.4768 390.281 53.066H392.281ZM392.33 52.9451C392.362 52.9133 392.386 52.896 392.469 52.896V50.896C391.88 50.896 391.34 51.1067 390.916 51.5309L392.33 52.9451ZM392.469 52.896C392.522 52.896 392.544 52.9047 392.546 52.9058C392.549 52.9067 392.55 52.9077 392.553 52.9095C392.556 52.9114 392.562 52.916 392.571 52.9257L394.023 51.5503C393.604 51.1079 393.058 50.896 392.469 50.896V52.896ZM392.609 52.964C392.619 52.9732 392.624 52.9793 392.626 52.982C392.627 52.9846 392.628 52.9865 392.629 52.9888C392.63 52.9914 392.639 53.0126 392.639 53.066H394.639C394.639 52.4768 394.427 51.9311 393.985 51.512L392.609 52.964ZM392.639 53.066C392.639 53.1492 392.622 53.173 392.59 53.2049L394.004 54.6191C394.428 54.195 394.639 53.6548 394.639 53.066H392.639ZM392.571 53.2243C392.562 53.234 392.556 53.2386 392.553 53.2405C392.55 53.2423 392.549 53.2433 392.546 53.2442C392.544 53.2453 392.522 53.254 392.469 53.254V55.254C393.058 55.254 393.604 55.0421 394.023 54.5997L392.571 53.2243ZM391.479 64C391.404 64 391.533 63.9805 391.692 64.1142C391.776 64.1847 391.835 64.2725 391.869 64.3592C391.901 64.4398 391.903 64.4984 391.903 64.514H389.903C389.903 64.8789 390.019 65.3197 390.402 65.6428C390.753 65.9385 391.17 66 391.479 66V64ZM391.903 64.514V64.064H389.903V64.514H391.903ZM391.903 64.064C391.903 64.0796 391.901 64.1382 391.869 64.2188C391.835 64.3055 391.776 64.3933 391.692 64.4638C391.533 64.5975 391.404 64.578 391.479 64.578V62.578C391.17 62.578 390.753 62.6395 390.402 62.9352C390.019 63.2583 389.903 63.6991 389.903 64.064H391.903ZM391.479 64.578H391.947V62.578H391.479V64.578ZM392.947 63.578V57.422H390.947V63.578H392.947ZM391.947 56.422H391.479V58.422H391.947V56.422ZM391.479 56.422C391.404 56.422 391.533 56.4025 391.692 56.5362C391.776 56.6067 391.835 56.6945 391.869 56.7812C391.901 56.8618 391.903 56.9204 391.903 56.936H389.903C389.903 57.3009 390.019 57.7417 390.402 58.0648C390.753 58.3605 391.17 58.422 391.479 58.422V56.422ZM391.903 56.936V56.486H389.903V56.936H391.903ZM391.903 56.486C391.903 56.5016 391.901 56.5602 391.869 56.6408C391.835 56.7275 391.776 56.8153 391.692 56.8858C391.533 57.0195 391.404 57 391.479 57V55C391.17 55 390.753 55.0615 390.402 55.3572C390.019 55.6803 389.903 56.1211 389.903 56.486H391.903ZM391.479 57H392.901V55H391.479V57ZM392.901 57C392.881 57 392.833 56.9961 392.772 56.9705C392.71 56.9441 392.661 56.906 392.629 56.8707L394.109 55.5253C393.784 55.1676 393.351 55 392.901 55V57ZM392.696 56.9379C392.661 56.9058 392.623 56.8571 392.597 56.7946C392.571 56.734 392.567 56.6861 392.567 56.666H394.567C394.567 56.2164 394.399 55.7832 394.042 55.4581L392.696 56.9379ZM392.567 56.666V63.578H394.567V56.666H392.567ZM393.567 64.578H394.035V62.578H393.567V64.578ZM394.035 64.578C394.122 64.578 394.002 64.5999 393.847 64.4735C393.764 64.4055 393.702 64.3184 393.666 64.2287C393.632 64.1451 393.629 64.0829 393.629 64.064H395.629C395.629 63.689 395.505 63.2454 395.114 62.9255C394.761 62.6371 394.344 62.578 394.035 62.578V64.578ZM393.629 64.064V64.514H395.629V64.064H393.629ZM393.629 64.514C393.629 64.4951 393.632 64.4329 393.666 64.3493C393.702 64.2596 393.764 64.1725 393.847 64.1045C394.002 63.9781 394.122 64 394.035 64V66C394.344 66 394.761 65.9409 395.114 65.6525C395.505 65.3326 395.629 64.889 395.629 64.514H393.629ZM394.035 64H391.479V66H394.035V64ZM397.005 63.578V64.578H398.005V63.578H397.005ZM397.005 53.102H398.005V52.102H397.005V53.102ZM398.409 51.878L397.669 52.5507L397.701 52.5859L397.737 52.6179L398.409 51.878ZM398.607 63.578H397.607V64.578H398.607V63.578ZM396.537 64C396.45 64 396.571 63.9781 396.725 64.1045C396.808 64.1725 396.87 64.2596 396.907 64.3493C396.941 64.4329 396.943 64.4951 396.943 64.514H394.943C394.943 64.889 395.068 65.3326 395.459 65.6525C395.811 65.9409 396.228 66 396.537 66V64ZM396.943 64.514V64.064H394.943V64.514H396.943ZM396.943 64.064C396.943 64.0829 396.941 64.1451 396.907 64.2287C396.87 64.3184 396.808 64.4055 396.725 64.4735C396.571 64.5999 396.45 64.578 396.537 64.578V62.578C396.228 62.578 395.811 62.6371 395.459 62.9255C395.068 63.2454 394.943 63.689 394.943 64.064H396.943ZM396.537 64.578H397.005V62.578H396.537V64.578ZM398.005 63.578V53.102H396.005V63.578H398.005ZM397.005 52.102H396.537V54.102H397.005V52.102ZM396.537 52.102C396.45 52.102 396.571 52.0801 396.725 52.2065C396.808 52.2745 396.87 52.3616 396.907 52.4513C396.941 52.5349 396.943 52.5971 396.943 52.616H394.943C394.943 52.991 395.068 53.4346 395.459 53.7545C395.811 54.0429 396.228 54.102 396.537 54.102V52.102ZM396.943 52.616V52.166H394.943V52.616H396.943ZM396.943 52.166C396.943 52.1849 396.941 52.2471 396.907 52.3307C396.87 52.4204 396.808 52.5075 396.725 52.5755C396.571 52.7019 396.45 52.68 396.537 52.68V50.68C396.228 50.68 395.811 50.7391 395.459 51.0275C395.068 51.3474 394.943 51.791 394.943 52.166H396.943ZM396.537 52.68H397.959V50.68H396.537V52.68ZM397.959 52.68C397.924 52.68 397.868 52.6729 397.804 52.6448C397.74 52.6166 397.695 52.579 397.669 52.5507L399.149 51.2053C398.838 50.8627 398.418 50.68 397.959 50.68V52.68ZM397.737 52.6179C397.701 52.5858 397.663 52.5371 397.637 52.4746C397.611 52.414 397.607 52.3661 397.607 52.346H399.607C399.607 51.8964 399.44 51.4632 399.082 51.1381L397.737 52.6179ZM397.607 52.346V63.578H399.607V52.346H397.607ZM398.607 64.578H399.075V62.578H398.607V64.578ZM399.075 64.578C399.162 64.578 399.042 64.5999 398.888 64.4735C398.805 64.4055 398.743 64.3184 398.706 64.2287C398.672 64.1451 398.669 64.0829 398.669 64.064H400.669C400.669 63.689 400.545 63.2454 400.154 62.9255C399.802 62.6371 399.384 62.578 399.075 62.578V64.578ZM398.669 64.064V64.514H400.669V64.064H398.669ZM398.669 64.514C398.669 64.4951 398.672 64.4329 398.706 64.3493C398.743 64.2596 398.805 64.1725 398.888 64.1045C399.042 63.9781 399.162 64 399.075 64V66C399.384 66 399.802 65.9409 400.154 65.6525C400.545 65.3326 400.669 64.889 400.669 64.514H398.669ZM399.075 64H396.537V66H399.075V64ZM402.068 63.578V64.578H403.068V63.578H402.068ZM402.068 53.102H403.068V52.102H402.068V53.102ZM403.472 51.878L402.732 52.5507L402.764 52.5859L402.799 52.6179L403.472 51.878ZM403.67 63.578H402.67V64.578H403.67V63.578ZM401.6 64C401.513 64 401.633 63.9781 401.788 64.1045C401.871 64.1725 401.933 64.2596 401.969 64.3493C402.003 64.4329 402.006 64.4951 402.006 64.514H400.006C400.006 64.889 400.13 65.3326 400.521 65.6525C400.874 65.9409 401.291 66 401.6 66V64ZM402.006 64.514V64.064H400.006V64.514H402.006ZM402.006 64.064C402.006 64.0829 402.003 64.1451 401.969 64.2287C401.933 64.3184 401.871 64.4055 401.788 64.4735C401.633 64.5999 401.513 64.578 401.6 64.578V62.578C401.291 62.578 400.874 62.6371 400.521 62.9255C400.13 63.2454 400.006 63.689 400.006 64.064H402.006ZM401.6 64.578H402.068V62.578H401.6V64.578ZM403.068 63.578V53.102H401.068V63.578H403.068ZM402.068 52.102H401.6V54.102H402.068V52.102ZM401.6 52.102C401.513 52.102 401.633 52.0801 401.788 52.2065C401.871 52.2745 401.933 52.3616 401.969 52.4513C402.003 52.5349 402.006 52.5971 402.006 52.616H400.006C400.006 52.991 400.13 53.4346 400.521 53.7545C400.874 54.0429 401.291 54.102 401.6 54.102V52.102ZM402.006 52.616V52.166H400.006V52.616H402.006ZM402.006 52.166C402.006 52.1849 402.003 52.2471 401.969 52.3307C401.933 52.4204 401.871 52.5075 401.788 52.5755C401.633 52.7019 401.513 52.68 401.6 52.68V50.68C401.291 50.68 400.874 50.7391 400.521 51.0275C400.13 51.3474 400.006 51.791 400.006 52.166H402.006ZM401.6 52.68H403.022V50.68H401.6V52.68ZM403.022 52.68C402.987 52.68 402.931 52.6729 402.867 52.6448C402.802 52.6166 402.758 52.579 402.732 52.5507L404.212 51.2053C403.9 50.8627 403.481 50.68 403.022 50.68V52.68ZM402.799 52.6179C402.764 52.5858 402.726 52.5371 402.699 52.4746C402.674 52.414 402.67 52.3661 402.67 52.346H404.67C404.67 51.8964 404.502 51.4632 404.145 51.1381L402.799 52.6179ZM402.67 52.346V63.578H404.67V52.346H402.67ZM403.67 64.578H404.138V62.578H403.67V64.578ZM404.138 64.578C404.225 64.578 404.105 64.5999 403.95 64.4735C403.867 64.4055 403.805 64.3184 403.769 64.2287C403.735 64.1451 403.732 64.0829 403.732 64.064H405.732C405.732 63.689 405.608 63.2454 405.217 62.9255C404.864 62.6371 404.447 62.578 404.138 62.578V64.578ZM403.732 64.064V64.514H405.732V64.064H403.732ZM403.732 64.514C403.732 64.4951 403.735 64.4329 403.769 64.3493C403.805 64.2596 403.867 64.1725 403.95 64.1045C404.105 63.9781 404.225 64 404.138 64V66C404.447 66 404.864 65.9409 405.217 65.6525C405.608 65.3326 405.732 64.889 405.732 64.514H403.732ZM404.138 64H401.6V66H404.138V64ZM406.986 53.912L407.693 53.2049V53.2049L406.986 53.912ZM406.986 52.238L407.674 52.964L407.684 52.9547L407.693 52.9451L406.986 52.238ZM408.66 52.238L407.934 52.9257L407.953 52.9454L407.973 52.964L408.66 52.238ZM408.66 53.912L407.953 53.2049L407.944 53.2144L407.934 53.2243L408.66 53.912ZM407.31 63.578V64.578H408.31V63.578H407.31ZM407.31 57.422H408.31V56.422H407.31V57.422ZM408.732 56.198L407.992 56.8707L408.024 56.9059L408.06 56.9379L408.732 56.198ZM408.93 63.578H407.93V64.578H408.93V63.578ZM407.832 53.254C407.749 53.254 407.725 53.2367 407.693 53.2049L406.279 54.6191C406.703 55.0433 407.244 55.254 407.832 55.254V53.254ZM407.693 53.2049C407.662 53.173 407.644 53.1492 407.644 53.066H405.644C405.644 53.6548 405.855 54.195 406.279 54.6191L407.693 53.2049ZM407.644 53.066C407.644 53.0126 407.653 52.9914 407.654 52.9888C407.655 52.9865 407.656 52.9846 407.658 52.982C407.66 52.9793 407.664 52.9732 407.674 52.964L406.299 51.512C405.856 51.9311 405.644 52.4768 405.644 53.066H407.644ZM407.693 52.9451C407.725 52.9133 407.749 52.896 407.832 52.896V50.896C407.244 50.896 406.703 51.1067 406.279 51.5309L407.693 52.9451ZM407.832 52.896C407.886 52.896 407.907 52.9047 407.91 52.9058C407.912 52.9067 407.914 52.9077 407.916 52.9095C407.919 52.9114 407.925 52.916 407.934 52.9257L409.386 51.5503C408.967 51.1079 408.422 50.896 407.832 50.896V52.896ZM407.973 52.964C407.982 52.9732 407.987 52.9793 407.989 52.982C407.991 52.9846 407.992 52.9865 407.993 52.9888C407.994 52.9914 408.002 53.0126 408.002 53.066H410.002C410.002 52.4768 409.79 51.9311 409.348 51.512L407.973 52.964ZM408.002 53.066C408.002 53.1492 407.985 53.173 407.953 53.2049L409.367 54.6191C409.792 54.195 410.002 53.6548 410.002 53.066H408.002ZM407.934 53.2243C407.925 53.234 407.919 53.2386 407.916 53.2405C407.914 53.2423 407.912 53.2433 407.91 53.2442C407.907 53.2453 407.886 53.254 407.832 53.254V55.254C408.422 55.254 408.967 55.0421 409.386 54.5997L407.934 53.2243ZM406.842 64C406.767 64 406.897 63.9805 407.055 64.1142C407.139 64.1847 407.198 64.2725 407.232 64.3592C407.264 64.4398 407.266 64.4984 407.266 64.514H405.266C405.266 64.8789 405.382 65.3197 405.765 65.6428C406.116 65.9385 406.534 66 406.842 66V64ZM407.266 64.514V64.064H405.266V64.514H407.266ZM407.266 64.064C407.266 64.0796 407.264 64.1382 407.232 64.2188C407.198 64.3055 407.139 64.3933 407.055 64.4638C406.897 64.5975 406.767 64.578 406.842 64.578V62.578C406.534 62.578 406.116 62.6395 405.765 62.9352C405.382 63.2583 405.266 63.6991 405.266 64.064H407.266ZM406.842 64.578H407.31V62.578H406.842V64.578ZM408.31 63.578V57.422H406.31V63.578H408.31ZM407.31 56.422H406.842V58.422H407.31V56.422ZM406.842 56.422C406.767 56.422 406.897 56.4025 407.055 56.5362C407.139 56.6067 407.198 56.6945 407.232 56.7812C407.264 56.8618 407.266 56.9204 407.266 56.936H405.266C405.266 57.3009 405.382 57.7417 405.765 58.0648C406.116 58.3605 406.534 58.422 406.842 58.422V56.422ZM407.266 56.936V56.486H405.266V56.936H407.266ZM407.266 56.486C407.266 56.5016 407.264 56.5602 407.232 56.6408C407.198 56.7275 407.139 56.8153 407.055 56.8858C406.897 57.0195 406.767 57 406.842 57V55C406.534 55 406.116 55.0615 405.765 55.3572C405.382 55.6803 405.266 56.1211 405.266 56.486H407.266ZM406.842 57H408.264V55H406.842V57ZM408.264 57C408.244 57 408.196 56.9961 408.136 56.9705C408.073 56.9441 408.025 56.906 407.992 56.8707L409.472 55.5253C409.147 55.1676 408.714 55 408.264 55V57ZM408.06 56.9379C408.024 56.9058 407.986 56.8571 407.96 56.7946C407.934 56.734 407.93 56.6861 407.93 56.666H409.93C409.93 56.2164 409.763 55.7832 409.405 55.4581L408.06 56.9379ZM407.93 56.666V63.578H409.93V56.666H407.93ZM408.93 64.578H409.398V62.578H408.93V64.578ZM409.398 64.578C409.485 64.578 409.365 64.5999 409.211 64.4735C409.128 64.4055 409.066 64.3184 409.029 64.2287C408.995 64.1451 408.992 64.0829 408.992 64.064H410.992C410.992 63.689 410.868 63.2454 410.477 62.9255C410.125 62.6371 409.707 62.578 409.398 62.578V64.578ZM408.992 64.064V64.514H410.992V64.064H408.992ZM408.992 64.514C408.992 64.4951 408.995 64.4329 409.029 64.3493C409.066 64.2596 409.128 64.1725 409.211 64.1045C409.365 63.9781 409.485 64 409.398 64V66C409.707 66 410.125 65.9409 410.477 65.6525C410.868 65.3326 410.992 64.889 410.992 64.514H408.992ZM409.398 64H406.842V66H409.398V64ZM418.507 63.578V64.578H419.507V63.578H418.507ZM418.111 57.872L417.247 58.3759L417.255 58.3902L417.264 58.4042L418.111 57.872ZM415.501 57.674L416.089 58.4827L416.093 58.4797L415.501 57.674ZM414.529 58.808L413.648 58.3339L413.643 58.3427L413.639 58.3517L414.529 58.808ZM414.169 63.578H413.169V64.578H414.169V63.578ZM412.549 63.578V64.578H413.549V63.578H412.549ZM412.549 57.422H413.549V56.422H412.549V57.422ZM413.971 56.198L413.231 56.8707L413.263 56.9059L413.298 56.9379L413.971 56.198ZM414.169 58.016H413.169L415.098 58.3844L414.169 58.016ZM415.393 56.45L415.979 57.2602L415.982 57.258L415.393 56.45ZM420.127 63.578H419.127V64.578H420.127V63.578ZM420.595 64.578C420.67 64.578 420.54 64.5975 420.382 64.4638C420.298 64.3933 420.239 64.3055 420.205 64.2188C420.173 64.1382 420.171 64.0796 420.171 64.064H422.171C422.171 63.6991 422.054 63.2583 421.671 62.9352C421.321 62.6395 420.903 62.578 420.595 62.578V64.578ZM420.171 64.064V64.514H422.171V64.064H420.171ZM420.171 64.514C420.171 64.4984 420.173 64.4398 420.205 64.3592C420.239 64.2725 420.298 64.1847 420.382 64.1142C420.54 63.9805 420.67 64 420.595 64V66C420.903 66 421.321 65.9385 421.671 65.6428C422.054 65.3197 422.171 64.8789 422.171 64.514H420.171ZM420.595 64H418.093V66H420.595V64ZM418.093 64C418.005 64 418.126 63.9781 418.28 64.1045C418.363 64.1725 418.425 64.2596 418.462 64.3493C418.496 64.4329 418.499 64.4951 418.499 64.514H416.499C416.499 64.889 416.623 65.3326 417.014 65.6525C417.366 65.9409 417.784 66 418.093 66V64ZM418.499 64.514V64.064H416.499V64.514H418.499ZM418.499 64.064C418.499 64.0829 418.496 64.1451 418.462 64.2287C418.425 64.3184 418.363 64.4055 418.28 64.4735C418.126 64.5999 418.005 64.578 418.093 64.578V62.578C417.784 62.578 417.366 62.6371 417.014 62.9255C416.623 63.2454 416.499 63.689 416.499 64.064H418.499ZM418.093 64.578H418.507V62.578H418.093V64.578ZM419.507 63.578V60.104H417.507V63.578H419.507ZM419.507 60.104C419.507 59.0196 419.385 58.0199 418.957 57.3398L417.264 58.4042C417.365 58.5641 417.507 59.0524 417.507 60.104H419.507ZM418.974 57.3681C418.493 56.5433 417.659 56.224 416.779 56.224V58.224C417.171 58.224 417.224 58.3367 417.247 58.3759L418.974 57.3681ZM416.779 56.224C416.092 56.224 415.463 56.4606 414.908 56.8683L416.093 58.4797C416.354 58.2874 416.577 58.224 416.779 58.224V56.224ZM414.912 56.8653C414.385 57.2488 413.965 57.7453 413.648 58.3339L415.409 59.2821C415.596 58.9347 415.824 58.6752 416.089 58.4827L414.912 56.8653ZM413.639 58.3517C413.328 58.9581 413.169 59.6062 413.169 60.284H415.169C415.169 59.9298 415.249 59.5939 415.418 59.2643L413.639 58.3517ZM413.169 60.284V63.578H415.169V60.284H413.169ZM414.169 64.578H414.583V62.578H414.169V64.578ZM414.583 64.578C414.67 64.578 414.549 64.5999 414.395 64.4735C414.312 64.4055 414.25 64.3184 414.213 64.2287C414.179 64.1451 414.177 64.0829 414.177 64.064H416.177C416.177 63.689 416.052 63.2454 415.661 62.9255C415.309 62.6371 414.891 62.578 414.583 62.578V64.578ZM414.177 64.064V64.514H416.177V64.064H414.177ZM414.177 64.514C414.177 64.4951 414.179 64.4329 414.213 64.3493C414.25 64.2596 414.312 64.1725 414.395 64.1045C414.549 63.9781 414.67 64 414.583 64V66C414.891 66 415.309 65.9409 415.661 65.6525C416.052 65.3326 416.177 64.889 416.177 64.514H414.177ZM414.583 64H412.081V66H414.583V64ZM412.081 64C412.005 64 412.135 63.9805 412.293 64.1142C412.377 64.1847 412.436 64.2725 412.471 64.3592C412.503 64.4398 412.505 64.4984 412.505 64.514H410.505C410.505 64.8789 410.621 65.3197 411.004 65.6428C411.354 65.9385 411.772 66 412.081 66V64ZM412.505 64.514V64.064H410.505V64.514H412.505ZM412.505 64.064C412.505 64.0796 412.503 64.1382 412.471 64.2188C412.436 64.3055 412.377 64.3933 412.293 64.4638C412.135 64.5975 412.005 64.578 412.081 64.578V62.578C411.772 62.578 411.354 62.6395 411.004 62.9352C410.621 63.2583 410.505 63.6991 410.505 64.064H412.505ZM412.081 64.578H412.549V62.578H412.081V64.578ZM413.549 63.578V57.422H411.549V63.578H413.549ZM412.549 56.422H412.081V58.422H412.549V56.422ZM412.081 56.422C412.005 56.422 412.135 56.4025 412.293 56.5362C412.377 56.6067 412.436 56.6945 412.471 56.7812C412.503 56.8618 412.505 56.9204 412.505 56.936H410.505C410.505 57.3009 410.621 57.7417 411.004 58.0648C411.354 58.3605 411.772 58.422 412.081 58.422V56.422ZM412.505 56.936V56.486H410.505V56.936H412.505ZM412.505 56.486C412.505 56.5016 412.503 56.5602 412.471 56.6408C412.436 56.7275 412.377 56.8153 412.293 56.8858C412.135 57.0195 412.005 57 412.081 57V55C411.772 55 411.354 55.0615 411.004 55.3572C410.621 55.6803 410.505 56.1211 410.505 56.486H412.505ZM412.081 57H413.503V55H412.081V57ZM413.503 57C413.483 57 413.435 56.9961 413.374 56.9705C413.312 56.9441 413.263 56.906 413.231 56.8707L414.711 55.5253C414.385 55.1676 413.952 55 413.503 55V57ZM413.298 56.9379C413.263 56.9058 413.225 56.8571 413.198 56.7946C413.172 56.734 413.169 56.6861 413.169 56.666H415.169C415.169 56.2164 415.001 55.7832 414.643 55.4581L413.298 56.9379ZM413.169 56.666V58.016H415.169V56.666H413.169ZM415.098 58.3844C415.279 57.9286 415.566 57.5587 415.979 57.2602L414.807 55.6398C414.091 56.1573 413.562 56.8314 413.239 57.6476L415.098 58.3844ZM415.982 57.258C416.416 56.9415 416.808 56.82 417.175 56.82V54.82C416.317 54.82 415.521 55.1185 414.803 55.642L415.982 57.258ZM417.175 56.82C417.905 56.82 418.314 57.0527 418.582 57.4187C418.892 57.8429 419.127 58.6005 419.127 59.852H421.127C421.127 58.4155 420.869 57.1571 420.195 56.2373C419.479 55.2593 418.412 54.82 417.175 54.82V56.82ZM419.127 59.852V63.578H421.127V59.852H419.127ZM420.127 64.578H420.595V62.578H420.127V64.578ZM430.894 57.422V56.422H429.894V57.422H430.894ZM429.832 68.114L429.081 67.4531H429.081L429.832 68.114ZM424.936 69.032L424.587 69.9692L424.594 69.9718L424.936 69.032ZM423.712 68.258L422.964 68.9224L422.971 68.93L422.978 68.9374L423.712 68.258ZM423.568 66.314L422.839 65.6286L423.568 66.314ZM425.026 66.296L424.296 66.9799L424.307 66.9917L424.318 67.0031L425.026 66.296ZM425.152 67.52L424.408 66.851L423.693 67.6458L424.534 68.3063L425.152 67.52ZM428.644 67.142L427.877 66.5L427.868 66.5107L428.644 67.142ZM429.292 63.2H430.292L428.358 62.8424L429.292 63.2ZM428.122 64.622L428.68 65.4513L428.684 65.4486L428.122 64.622ZM424.45 64.622L423.882 65.4456L423.891 65.4513L424.45 64.622ZM423.19 63.038L422.266 63.4204L422.27 63.43L422.274 63.4397L423.19 63.038ZM423.802 57.098L423.032 56.4589L423.027 56.4654L423.802 57.098ZM428.194 56.216L427.702 57.087L427.712 57.0922L428.194 56.216ZM429.4 57.314L428.577 57.8832L430.13 60.1259L430.395 57.4111L429.4 57.314ZM429.472 56.576L430.467 56.6731L430.467 56.6693L429.472 56.576ZM428.014 63.398L428.55 64.2417L428.559 64.236L428.568 64.2301L428.014 63.398ZM428.95 62.336L429.839 62.7928L428.95 62.336ZM429.292 58.538H430.292V58.1872L430.072 57.9133L429.292 58.538ZM428.158 57.566L427.67 58.439L427.68 58.4449L428.158 57.566ZM425.026 58.124L425.839 58.7053L425.845 58.6975L425.026 58.124ZM425.008 62.966L424.21 63.5688L425.008 62.966ZM431.362 57C431.449 57 431.328 57.0219 431.174 56.8955C431.091 56.8275 431.029 56.7404 430.992 56.6507C430.958 56.5671 430.956 56.5049 430.956 56.486H432.956C432.956 56.111 432.831 55.6674 432.44 55.3475C432.088 55.0591 431.67 55 431.362 55V57ZM430.956 56.486V56.936H432.956V56.486H430.956ZM430.956 56.936C430.956 56.9171 430.958 56.8549 430.992 56.7713C431.029 56.6816 431.091 56.5945 431.174 56.5265C431.328 56.4001 431.449 56.422 431.362 56.422V58.422C431.67 58.422 432.088 58.3629 432.44 58.0745C432.831 57.7546 432.956 57.311 432.956 56.936H430.956ZM431.362 56.422H430.894V58.422H431.362V56.422ZM429.894 57.422V64.55H431.894V57.422H429.894ZM429.894 64.55C429.894 65.99 429.567 66.9008 429.081 67.4531L430.582 68.7749C431.512 67.7192 431.894 66.254 431.894 64.55H429.894ZM429.081 67.4531C428.616 67.9812 427.878 68.32 426.682 68.32V70.32C428.269 70.32 429.631 69.8548 430.582 68.7749L429.081 67.4531ZM426.682 68.32C426.147 68.32 425.682 68.2395 425.277 68.0922L424.594 69.9718C425.245 70.2085 425.944 70.32 426.682 70.32V68.32ZM425.284 68.0948C424.88 67.9442 424.616 67.7628 424.445 67.5786L422.978 68.9374C423.407 69.4012 423.96 69.7358 424.587 69.9692L425.284 68.0948ZM424.459 67.5936C424.323 67.4402 424.28 67.3069 424.28 67.16H422.28C422.28 67.8291 422.525 68.4278 422.964 68.9224L424.459 67.5936ZM424.28 67.16C424.28 67.0675 424.292 67.0189 424.298 67.0008C424.303 66.9863 424.304 66.9908 424.296 66.9994L422.839 65.6286C422.427 66.0665 422.28 66.6206 422.28 67.16H424.28ZM424.296 66.9994C424.295 66.9999 424.292 67.0031 424.286 67.0071C424.28 67.011 424.275 67.0134 424.273 67.0145C424.267 67.0168 424.285 67.008 424.342 67.008V65.008C423.789 65.008 423.25 65.1919 422.839 65.6286L424.296 66.9994ZM424.342 67.008C424.352 67.008 424.356 67.0089 424.352 67.0083C424.349 67.0077 424.342 67.0059 424.332 67.0016C424.321 66.9974 424.312 66.9922 424.305 66.987C424.298 66.9819 424.295 66.9787 424.296 66.9799L425.755 65.6121C425.376 65.2076 424.879 65.008 424.342 65.008V67.008ZM424.318 67.0031C424.322 67.0067 424.322 67.0069 424.32 67.0037C424.317 67.0003 424.315 66.9959 424.313 66.9914C424.311 66.9869 424.311 66.9852 424.312 66.9879C424.312 66.9907 424.314 66.9996 424.314 67.016H426.314C426.314 66.4806 426.124 65.9807 425.733 65.5889L424.318 67.0031ZM424.314 67.016C424.314 67.0425 424.31 67.0321 424.321 66.998C424.333 66.9603 424.359 66.9054 424.408 66.851L425.895 68.189C426.217 67.8308 426.314 67.3942 426.314 67.016H424.314ZM424.534 68.3063C425.111 68.7598 425.843 68.916 426.592 68.916V66.916C426.092 66.916 425.864 66.8082 425.769 66.7337L424.534 68.3063ZM426.592 68.916C427.707 68.916 428.739 68.6093 429.419 67.7733L427.868 66.5107C427.709 66.7067 427.372 66.916 426.592 66.916V68.916ZM429.41 67.7839C430.068 66.9982 430.292 65.8744 430.292 64.64H428.292C428.292 65.7096 428.083 66.2538 427.877 66.5001L429.41 67.7839ZM430.292 64.64V63.2H428.292V64.64H430.292ZM428.358 62.8424C428.224 63.1917 427.977 63.5107 427.559 63.7954L428.684 65.4486C429.394 64.9653 429.927 64.3363 430.225 63.5576L428.358 62.8424ZM427.563 63.7927C427.164 64.0613 426.769 64.18 426.358 64.18V66.18C427.194 66.18 427.975 65.9267 428.68 65.4513L427.563 63.7927ZM426.358 64.18C425.82 64.18 425.382 64.0443 425.008 63.7927L423.891 65.4513C424.621 65.9437 425.455 66.18 426.358 66.18V64.18ZM425.017 63.7985C424.65 63.546 424.341 63.1743 424.105 62.6363L422.274 63.4397C422.638 64.2697 423.169 64.954 423.882 65.4455L425.017 63.7985ZM424.114 62.6556C423.886 62.105 423.758 61.4297 423.758 60.608H421.758C421.758 61.6343 421.917 62.579 422.266 63.4204L424.114 62.6556ZM423.758 60.608C423.758 59.2694 424.07 58.35 424.576 57.7306L423.027 56.4654C422.141 57.55 421.758 58.9706 421.758 60.608H423.758ZM424.571 57.7371C425.067 57.1396 425.738 56.82 426.7 56.82V54.82C425.214 54.82 423.952 55.3524 423.032 56.4589L424.571 57.7371ZM426.7 56.82C427.052 56.82 427.381 56.906 427.702 57.087L428.685 55.345C428.07 54.998 427.403 54.82 426.7 54.82V56.82ZM427.712 57.0922C428.051 57.2787 428.338 57.5374 428.577 57.8832L430.222 56.7448C429.813 56.1546 429.297 55.6813 428.675 55.3398L427.712 57.0922ZM430.395 57.4111L430.467 56.6731L428.476 56.4789L428.404 57.2169L430.395 57.4111ZM430.467 56.6693C430.472 56.6208 430.473 56.7365 430.343 56.8619C430.204 56.9969 430.063 57 430.066 57V55C429.708 55 429.288 55.0991 428.951 55.4261C428.624 55.7435 428.507 56.1472 428.476 56.4827L430.467 56.6693ZM430.066 57H431.362V55H430.066V57ZM426.718 64.776C427.376 64.776 427.995 64.5954 428.55 64.2417L427.477 62.5543C427.241 62.7046 426.995 62.776 426.718 62.776V64.776ZM428.568 64.2301C429.113 63.8669 429.537 63.3807 429.839 62.7928L428.06 61.8792C427.906 62.1793 427.706 62.4011 427.459 62.5659L428.568 64.2301ZM429.839 62.7928C430.144 62.1993 430.292 61.5554 430.292 60.878H428.292C428.292 61.2566 428.211 61.5847 428.06 61.8792L429.839 62.7928ZM430.292 60.878V58.538H428.292V60.878H430.292ZM430.072 57.9133C429.664 57.4022 429.186 56.9863 428.635 56.6871L427.68 58.4449C427.969 58.6017 428.248 58.8338 428.511 59.1627L430.072 57.9133ZM428.645 56.6931C428.092 56.3839 427.493 56.224 426.862 56.224V58.224C427.142 58.224 427.407 58.2921 427.67 58.4389L428.645 56.6931ZM426.862 56.224C425.769 56.224 424.834 56.654 424.206 57.5505L425.845 58.6975C426.057 58.394 426.347 58.224 426.862 58.224V56.224ZM424.212 57.5428C423.62 58.3714 423.396 59.4704 423.396 60.698H425.396C425.396 59.6696 425.591 59.0526 425.839 58.7052L424.212 57.5428ZM423.396 60.698C423.396 61.7958 423.624 62.794 424.21 63.5688L425.805 62.3632C425.575 62.058 425.396 61.5442 425.396 60.698H423.396ZM424.21 63.5688C424.824 64.3817 425.702 64.776 426.718 64.776V62.776C426.269 62.776 426.007 62.6303 425.805 62.3632L424.21 63.5688Z" fill="#70557B" mask="url(#path-92-outside-1_31_164)"/>
<mask id="path-94-outside-2_31_164" maskUnits="userSpaceOnUse" x="1" y="38" width="23" height="29" fill="black">
<rect fill="white" x="1" y="38" width="23" height="29"/>
<path d="M20.592 58.052C21 58.052 21.348 58.172 21.636 58.412C21.924 58.652 22.068 58.952 22.068 59.312C22.068 59.816 21.888 60.344 21.528 60.896C20.616 62.384 19.476 63.5 18.108 64.244C16.74 64.988 15.108 65.36 13.212 65.36C11.004 65.36 9.096 64.832 7.488 63.776C5.904 62.696 4.68 61.184 3.816 59.24C2.976 57.272 2.556 54.968 2.556 52.328C2.556 48.272 3.492 45.116 5.364 42.86C7.26 40.58 9.9 39.44 13.284 39.44C14.868 39.44 16.332 39.728 17.676 40.304C19.02 40.88 20.088 41.66 20.88 42.644C21.672 43.604 22.068 44.672 22.068 45.848C22.068 46.616 21.864 47.228 21.456 47.684C21.072 48.14 20.532 48.368 19.836 48.368C19.236 48.368 18.732 48.176 18.324 47.792C17.94 47.408 17.748 46.928 17.748 46.352C17.748 45.656 18 45.092 18.504 44.66C18.072 43.916 17.388 43.34 16.452 42.932C15.516 42.5 14.472 42.284 13.32 42.284C8.328 42.284 5.832 45.62 5.832 52.292C5.832 55.58 6.456 58.112 7.704 59.888C8.976 61.64 10.848 62.516 13.32 62.516C14.664 62.516 15.816 62.24 16.776 61.688C17.76 61.136 18.576 60.284 19.224 59.132C19.44 58.7 19.644 58.412 19.836 58.268C20.028 58.124 20.28 58.052 20.592 58.052Z"/>
</mask>
<path d="M21.636 58.412L20.9958 59.1802L20.9958 59.1802L21.636 58.412ZM21.528 60.896L20.6904 60.3497L20.6827 60.3615L20.6754 60.3734L21.528 60.896ZM18.108 64.244L18.5858 65.1225L18.108 64.244ZM7.488 63.776L6.92466 64.6022L6.93183 64.6071L6.93907 64.6119L7.488 63.776ZM3.816 59.24L2.89628 59.6326L2.89918 59.6394L2.90219 59.6461L3.816 59.24ZM5.364 42.86L4.59512 42.2206L4.59444 42.2214L5.364 42.86ZM17.676 40.304L17.2821 41.2231L17.676 40.304ZM20.88 42.644L20.1009 43.2711L20.1086 43.2804L20.88 42.644ZM21.456 47.684L20.7108 47.0172L20.7008 47.0284L20.6911 47.0399L21.456 47.684ZM18.324 47.792L17.6169 48.4991L17.6276 48.5098L17.6386 48.5202L18.324 47.792ZM18.504 44.66L19.1548 45.4193L19.7867 44.8776L19.3688 44.1579L18.504 44.66ZM16.452 42.932L16.0329 43.84L16.0426 43.8444L16.0524 43.8487L16.452 42.932ZM7.704 59.888L6.88581 60.4629L6.89025 60.4693L6.89479 60.4755L7.704 59.888ZM16.776 61.688L16.2867 60.8158L16.2775 60.8211L16.776 61.688ZM19.224 59.132L20.0956 59.6223L20.1075 59.601L20.1184 59.5792L19.224 59.132ZM19.836 58.268L19.236 57.468L19.236 57.468L19.836 58.268ZM20.592 59.052C20.7882 59.052 20.9039 59.1036 20.9958 59.1802L22.2762 57.6438C21.7921 57.2404 21.2118 57.052 20.592 57.052V59.052ZM20.9958 59.1802C21.0436 59.2201 21.056 59.2445 21.0585 59.2497C21.0605 59.2539 21.068 59.2693 21.068 59.312H23.068C23.068 58.6414 22.7813 58.0647 22.2762 57.6438L20.9958 59.1802ZM21.068 59.312C21.068 59.5706 20.9765 59.911 20.6904 60.3497L22.3656 61.4423C22.7995 60.777 23.068 60.0614 23.068 59.312H21.068ZM20.6754 60.3734C19.8437 61.7304 18.8263 62.715 17.6302 63.3655L18.5858 65.1225C20.1257 64.285 21.3883 63.0376 22.3806 61.4186L20.6754 60.3734ZM17.6302 63.3655C16.4375 64.0142 14.9771 64.36 13.212 64.36V66.36C15.2389 66.36 17.0425 65.9618 18.5858 65.1225L17.6302 63.3655ZM13.212 64.36C11.1695 64.36 9.45878 63.8739 8.03693 62.9401L6.93907 64.6119C8.73322 65.7901 10.8385 66.36 13.212 66.36V64.36ZM8.05134 62.9498C6.63743 61.9857 5.52684 60.6272 4.72981 58.8339L2.90219 59.6461C3.83316 61.7408 5.17057 63.4063 6.92466 64.6022L8.05134 62.9498ZM4.73572 58.8474C3.95953 57.0289 3.556 54.8637 3.556 52.328H1.556C1.556 55.0723 1.99247 57.5151 2.89628 59.6326L4.73572 58.8474ZM3.556 52.328C3.556 48.4164 4.45875 45.5169 6.13356 43.4986L4.59444 42.2214C2.52526 44.7151 1.556 48.1276 1.556 52.328H3.556ZM6.13288 43.4994C7.81075 41.4817 10.1501 40.44 13.284 40.44V38.44C9.64988 38.44 6.70925 39.6783 4.59512 42.2206L6.13288 43.4994ZM13.284 40.44C14.744 40.44 16.0726 40.7048 17.2821 41.2231L18.0699 39.3849C16.5914 38.7512 14.992 38.44 13.284 38.44V40.44ZM17.2821 41.2231C18.4996 41.7449 19.4266 42.4332 20.101 43.271L21.659 42.017C20.7494 40.8868 19.5404 40.0151 18.0699 39.3849L17.2821 41.2231ZM20.1086 43.2804C20.7621 44.0725 21.068 44.9184 21.068 45.848H23.068C23.068 44.4256 22.5819 43.1355 21.6514 42.0076L20.1086 43.2804ZM21.068 45.848C21.068 46.4351 20.9159 46.7879 20.7108 47.0172L22.2012 48.3508C22.8121 47.6681 23.068 46.7969 23.068 45.848H21.068ZM20.6911 47.0399C20.5298 47.2314 20.2919 47.368 19.836 47.368V49.368C20.7721 49.368 21.6142 49.0486 22.2209 48.3281L20.6911 47.0399ZM19.836 47.368C19.4709 47.368 19.2179 47.2601 19.0094 47.0638L17.6386 48.5202C18.2461 49.0919 19.0011 49.368 19.836 49.368V47.368ZM19.0311 47.0849C18.8469 46.9007 18.748 46.6806 18.748 46.352H16.748C16.748 47.1754 17.0331 47.9153 17.6169 48.4991L19.0311 47.0849ZM18.748 46.352C18.748 45.9318 18.8844 45.651 19.1548 45.4193L17.8532 43.9007C17.1156 44.533 16.748 45.3802 16.748 46.352H18.748ZM19.3688 44.1579C18.8109 43.1971 17.9453 42.492 16.8516 42.0153L16.0524 43.8487C16.8307 44.188 17.3331 44.6349 17.6392 45.1621L19.3688 44.1579ZM16.8711 42.024C15.789 41.5246 14.5996 41.284 13.32 41.284V43.284C14.3444 43.284 15.243 43.4754 16.0329 43.84L16.8711 42.024ZM13.32 41.284C10.5791 41.284 8.37858 42.2152 6.90331 44.1869C5.46882 46.1042 4.832 48.8602 4.832 52.292H6.832C6.832 49.0518 7.44318 46.8038 8.50469 45.3851C9.52542 44.0208 11.0689 43.284 13.32 43.284V41.284ZM4.832 52.292C4.832 55.6862 5.47287 58.4522 6.88581 60.4629L8.52219 59.3131C7.43913 57.7718 6.832 55.4738 6.832 52.292H4.832ZM6.89479 60.4755C8.38359 62.5261 10.5799 63.516 13.32 63.516V61.516C11.1161 61.516 9.56841 60.7539 8.51322 59.3005L6.89479 60.4755ZM13.32 63.516C14.8017 63.516 16.1335 63.211 17.2745 62.5549L16.2775 60.8211C15.4985 61.269 14.5263 61.516 13.32 61.516V63.516ZM17.2653 62.5601C18.435 61.9039 19.3732 60.9064 20.0956 59.6223L18.3524 58.6417C17.7788 59.6616 17.085 60.3681 16.2868 60.8159L17.2653 62.5601ZM20.1184 59.5792C20.2113 59.3934 20.2909 59.2605 20.355 59.17C20.4225 59.0748 20.4523 59.0558 20.436 59.068L19.236 57.468C18.8477 57.7593 18.5584 58.2271 18.3296 58.6848L20.1184 59.5792ZM20.436 59.068C20.4257 59.0757 20.4243 59.0731 20.4437 59.0675C20.4653 59.0614 20.5118 59.052 20.592 59.052V57.052C20.1287 57.052 19.6468 57.1599 19.236 57.468L20.436 59.068Z" fill="#70557B" mask="url(#path-94-outside-2_31_164)"/>
</svg>
